<?xml version="1.0" standalone="no"?>
 <!DOCTYPE svg PUBLIC "-//W3C//DTD SVG 1.1//EN" 
 "http://www.w3.org/Graphics/SVG/1.1/DTD/svg11.dtd"> 
<svg
  xmlns:svg="http://www.w3.org/2000/svg"
  xmlns="http://www.w3.org/2000/svg"
  xmlns:xlink="http://www.w3.org/1999/xlink"
  version="1.1"
  width="29.700220cm" height="21.000720cm" viewBox="0 0 297002200 210007200">
<title>SVG Picture created as Filter DualOp-F_Cu.svg date 2023/12/07 00:13:48 </title>
  <desc>Picture generated by PCBNEW </desc>
<g style="fill:#000000; fill-opacity:1.000000;stroke:#000000; stroke-opacity:1.000000;
stroke-linecap:round; stroke-linejoin:round;"
 transform="translate(0 0) scale(1 1)">
</g>
<g style="fill:#000000; fill-opacity:0.0; 
stroke:#000000; stroke-width:0.000000; stroke-opacity:1; 
stroke-linecap:round; stroke-linejoin:round;">
</g>
<g style="fill:#000000; fill-opacity:0.0; 
stroke:#000000; stroke-width:50000.000000; stroke-opacity:1; 
stroke-linecap:round; stroke-linejoin:round;">
<path d="M159400244 99710244
L126380244 99710244
" />
<path d="M126380244 99710244
L126380244 70500244
" />
<path d="M126380244 70500244
L159400244 70500244
" />
<path d="M159400244 70500244
L159400244 99710244
" />
<g >
</g>
<g style="fill:#000000; fill-opacity:1.0; 
stroke:#000000; stroke-width:1.000000; stroke-opacity:1; 
stroke-linecap:round; stroke-linejoin:round;">
<circle cx="131460244.000000" cy="81930244.000000" r="800000.000000" /> 
</g>
<g >
</g>
<g style="fill:#000000; fill-opacity:1.0; 
stroke:#000000; stroke-width:1.000000; stroke-opacity:1; 
stroke-linecap:round; stroke-linejoin:round;">
<circle cx="147970244.000000" cy="79390244.000000" r="800000.000000" /> 
</g>
<g style="fill:#000000; fill-opacity:1.0; 
stroke:#000000; stroke-width:21200.000000; stroke-opacity:1; 
stroke-linecap:round; stroke-linejoin:round;">
</g>
<g style="fill:#000000; fill-opacity:1.0; 
stroke:#000000; stroke-width:1.000000; stroke-opacity:1; 
stroke-linecap:round; stroke-linejoin:round;">
<circle cx="147970244.000000" cy="81930244.000000" r="800000.000000" /> 
</g>
<g >
</g>
<g style="fill:#000000; fill-opacity:1.0; 
stroke:#000000; stroke-width:1.000000; stroke-opacity:1; 
stroke-linecap:round; stroke-linejoin:round;">
<path style="fill:#000000; fill-opacity:1.0; 
stroke:#000000; stroke-width:1.000000; stroke-opacity:1; 
stroke-linecap:round; stroke-linejoin:round;fill-rule:evenodd;"
d="M 149690244.000000,92460244.000000
149774566.000000,92468215.000000
149900812.000000,92512549.000000
150008442.000000,92592046.000000
150087939.000000,92699676.000000
150132273.000000,92825922.000000
150140244.000000,92910244.000000
150140244.000000,93810244.000000
150132273.000000,93894566.000000
150087939.000000,94020812.000000
150008442.000000,94128442.000000
149900812.000000,94207939.000000
149774566.000000,94252273.000000
149690244.000000,94260244.000000
148790244.000000,94260244.000000
148705922.000000,94252273.000000
148579676.000000,94207939.000000
148472046.000000,94128442.000000
148392549.000000,94020812.000000
148348215.000000,93894566.000000
148340244.000000,93810244.000000
148340244.000000,92910244.000000
148348215.000000,92825922.000000
148392549.000000,92699676.000000
148472046.000000,92592046.000000
148579676.000000,92512549.000000
148705922.000000,92468215.000000
148790244.000000,92460244.000000
Z" /> 
<circle cx="151740244.000000" cy="93360244.000000" r="900000.000000" /> 
</g>
<g style="fill:#000000; fill-opacity:1.0; 
stroke:#000000; stroke-width:21200.000000; stroke-opacity:1; 
stroke-linecap:round; stroke-linejoin:round;">
</g>
<g style="fill:#000000; fill-opacity:1.0; 
stroke:#000000; stroke-width:1.000000; stroke-opacity:1; 
stroke-linecap:round; stroke-linejoin:round;">
<circle cx="154240244.000000" cy="93360244.000000" r="900000.000000" /> 
</g>
<g style="fill:#000000; fill-opacity:1.0; 
stroke:#000000; stroke-width:21200.000000; stroke-opacity:1; 
stroke-linecap:round; stroke-linejoin:round;">
</g>
<g style="fill:#000000; fill-opacity:1.0; 
stroke:#000000; stroke-width:1.000000; stroke-opacity:1; 
stroke-linecap:round; stroke-linejoin:round;">
<circle cx="149240244.000000" cy="90860244.000000" r="900000.000000" /> 
</g>
<g style="fill:#000000; fill-opacity:1.0; 
stroke:#000000; stroke-width:21200.000000; stroke-opacity:1; 
stroke-linecap:round; stroke-linejoin:round;">
</g>
<g style="fill:#000000; fill-opacity:1.0; 
stroke:#000000; stroke-width:1.000000; stroke-opacity:1; 
stroke-linecap:round; stroke-linejoin:round;">
<circle cx="151740244.000000" cy="90860244.000000" r="900000.000000" /> 
</g>
<g style="fill:#000000; fill-opacity:1.0; 
stroke:#000000; stroke-width:21200.000000; stroke-opacity:1; 
stroke-linecap:round; stroke-linejoin:round;">
</g>
<g style="fill:#000000; fill-opacity:1.0; 
stroke:#000000; stroke-width:1.000000; stroke-opacity:1; 
stroke-linecap:round; stroke-linejoin:round;">
<circle cx="154240244.000000" cy="90860244.000000" r="900000.000000" /> 
</g>
<g style="fill:#000000; fill-opacity:1.0; 
stroke:#000000; stroke-width:21200.000000; stroke-opacity:1; 
stroke-linecap:round; stroke-linejoin:round;">
</g>
<g >
</g>
<g style="fill:#000000; fill-opacity:1.0; 
stroke:#000000; stroke-width:21200.000000; stroke-opacity:1; 
stroke-linecap:round; stroke-linejoin:round;">
</g>
<g style="fill:#000000; fill-opacity:1.0; 
stroke:#000000; stroke-width:1.000000; stroke-opacity:1; 
stroke-linecap:round; stroke-linejoin:round;">
<circle cx="151780244.000000" cy="79390244.000000" r="800000.000000" /> 
</g>
<g style="fill:#000000; fill-opacity:1.0; 
stroke:#000000; stroke-width:21200.000000; stroke-opacity:1; 
stroke-linecap:round; stroke-linejoin:round;">
</g>
<g >
</g>
<g style="fill:#000000; fill-opacity:1.0; 
stroke:#000000; stroke-width:21200.000000; stroke-opacity:1; 
stroke-linecap:round; stroke-linejoin:round;">
</g>
<g style="fill:#000000; fill-opacity:1.0; 
stroke:#000000; stroke-width:1.000000; stroke-opacity:1; 
stroke-linecap:round; stroke-linejoin:round;">
<circle cx="155590244.000000" cy="86970244.000000" r="800000.000000" /> 
</g>
<g style="fill:#000000; fill-opacity:1.0; 
stroke:#000000; stroke-width:21200.000000; stroke-opacity:1; 
stroke-linecap:round; stroke-linejoin:round;">
</g>
<g style="fill:#000000; fill-opacity:1.0; 
stroke:#000000; stroke-width:1.000000; stroke-opacity:1; 
stroke-linecap:round; stroke-linejoin:round;">
<circle cx="155590244.000000" cy="84470244.000000" r="800000.000000" /> 
</g>
<g style="fill:#000000; fill-opacity:1.0; 
stroke:#000000; stroke-width:21200.000000; stroke-opacity:1; 
stroke-linecap:round; stroke-linejoin:round;">
</g>
<g >
</g>
<g style="fill:#000000; fill-opacity:1.0; 
stroke:#000000; stroke-width:21200.000000; stroke-opacity:1; 
stroke-linecap:round; stroke-linejoin:round;">
</g>
<g style="fill:#000000; fill-opacity:1.0; 
stroke:#000000; stroke-width:1.000000; stroke-opacity:1; 
stroke-linecap:round; stroke-linejoin:round;">
<path style="fill:#000000; fill-opacity:1.0; 
stroke:#000000; stroke-width:1.000000; stroke-opacity:1; 
stroke-linecap:round; stroke-linejoin:round;fill-rule:evenodd;"
d="M 142410244.000000,81120244.000000
142410244.000000,82720244.000000
140810244.000000,82720244.000000
140810244.000000,81120244.000000
Z" /> 
<circle cx="141610244.000000" cy="79380244.000000" r="800000.000000" /> 
<circle cx="141610244.000000" cy="76840244.000000" r="800000.000000" /> 
<circle cx="141610244.000000" cy="74300244.000000" r="800000.000000" /> 
<circle cx="133990244.000000" cy="74300244.000000" r="800000.000000" /> 
<circle cx="133990244.000000" cy="76840244.000000" r="800000.000000" /> 
<circle cx="133990244.000000" cy="79380244.000000" r="800000.000000" /> 
<circle cx="133990244.000000" cy="81920244.000000" r="800000.000000" /> 
</g>
<g >
</g>
<g style="fill:#000000; fill-opacity:1.0; 
stroke:#000000; stroke-width:1.000000; stroke-opacity:1; 
stroke-linecap:round; stroke-linejoin:round;">
<circle cx="151780244.000000" cy="81930244.000000" r="800000.000000" /> 
</g>
<g style="fill:#000000; fill-opacity:1.0; 
stroke:#000000; stroke-width:21200.000000; stroke-opacity:1; 
stroke-linecap:round; stroke-linejoin:round;">
</g>
<g style="fill:#000000; fill-opacity:1.0; 
stroke:#000000; stroke-width:1.000000; stroke-opacity:1; 
stroke-linecap:round; stroke-linejoin:round;">
<circle cx="151780244.000000" cy="84470244.000000" r="800000.000000" /> 
</g>
<g >
</g>
<g style="fill:#000000; fill-opacity:1.0; 
stroke:#000000; stroke-width:1.000000; stroke-opacity:1; 
stroke-linecap:round; stroke-linejoin:round;">
<circle cx="131460244.000000" cy="79390244.000000" r="800000.000000" /> 
</g>
<g >
</g>
<g style="fill:#000000; fill-opacity:1.0; 
stroke:#000000; stroke-width:1.000000; stroke-opacity:1; 
stroke-linecap:round; stroke-linejoin:round;">
<circle cx="155590244.000000" cy="79350244.000000" r="800000.000000" /> 
</g>
<g style="fill:#000000; fill-opacity:1.0; 
stroke:#000000; stroke-width:21200.000000; stroke-opacity:1; 
stroke-linecap:round; stroke-linejoin:round;">
</g>
<g style="fill:#000000; fill-opacity:1.0; 
stroke:#000000; stroke-width:1.000000; stroke-opacity:1; 
stroke-linecap:round; stroke-linejoin:round;">
<circle cx="155590244.000000" cy="81890244.000000" r="800000.000000" /> 
</g>
<g >
</g>
<g style="fill:#000000; fill-opacity:1.0; 
stroke:#000000; stroke-width:1.000000; stroke-opacity:1; 
stroke-linecap:round; stroke-linejoin:round;">
<circle cx="144272000.000000" cy="81930244.000000" r="800000.000000" /> 
</g>
<g style="fill:#000000; fill-opacity:1.0; 
stroke:#000000; stroke-width:21200.000000; stroke-opacity:1; 
stroke-linecap:round; stroke-linejoin:round;">
</g>
<g style="fill:#000000; fill-opacity:1.0; 
stroke:#000000; stroke-width:1.000000; stroke-opacity:1; 
stroke-linecap:round; stroke-linejoin:round;">
<circle cx="144272000.000000" cy="79430244.000000" r="800000.000000" /> 
</g>
<g style="fill:#000000; fill-opacity:1.0; 
stroke:#000000; stroke-width:21200.000000; stroke-opacity:1; 
stroke-linecap:round; stroke-linejoin:round;">
</g>
<g >
</g>
<g style="fill:#000000; fill-opacity:1.0; 
stroke:#000000; stroke-width:21200.000000; stroke-opacity:1; 
stroke-linecap:round; stroke-linejoin:round;">
</g>
<g style="fill:#000000; fill-opacity:1.0; 
stroke:#000000; stroke-width:1.000000; stroke-opacity:1; 
stroke-linecap:round; stroke-linejoin:round;">
<circle cx="132730244.000000" cy="90820244.000000" r="800000.000000" /> 
</g>
<g style="fill:#000000; fill-opacity:1.0; 
stroke:#000000; stroke-width:21200.000000; stroke-opacity:1; 
stroke-linecap:round; stroke-linejoin:round;">
</g>
<g style="fill:#000000; fill-opacity:1.0; 
stroke:#000000; stroke-width:1.000000; stroke-opacity:1; 
stroke-linecap:round; stroke-linejoin:round;">
<circle cx="132730244.000000" cy="88280244.000000" r="800000.000000" /> 
</g>
<g >
</g>
<g style="fill:#000000; fill-opacity:1.0; 
stroke:#000000; stroke-width:1.000000; stroke-opacity:1; 
stroke-linecap:round; stroke-linejoin:round;">
<path style="fill:#000000; fill-opacity:1.0; 
stroke:#000000; stroke-width:1.000000; stroke-opacity:1; 
stroke-linecap:round; stroke-linejoin:round;fill-rule:evenodd;"
d="M 135750244.000000,89090244.000000
135750244.000000,87490244.000000
137350244.000000,87490244.000000
137350244.000000,89090244.000000
Z" /> 
<circle cx="136550244.000000" cy="90830244.000000" r="800000.000000" /> 
<circle cx="136550244.000000" cy="93370244.000000" r="800000.000000" /> 
<circle cx="136550244.000000" cy="95910244.000000" r="800000.000000" /> 
<circle cx="144170244.000000" cy="95910244.000000" r="800000.000000" /> 
<circle cx="144170244.000000" cy="93370244.000000" r="800000.000000" /> 
<circle cx="144170244.000000" cy="90830244.000000" r="800000.000000" /> 
<circle cx="144170244.000000" cy="88290244.000000" r="800000.000000" /> 
</g>
<g >
</g>
<g style="fill:#000000; fill-opacity:1.0; 
stroke:#000000; stroke-width:1.000000; stroke-opacity:1; 
stroke-linecap:round; stroke-linejoin:round;">
<circle cx="131460244.000000" cy="84470244.000000" r="800000.000000" /> 
</g>
<g >
</g>
<g >
</g>
<g style="fill:#000000; fill-opacity:1.0; 
stroke:#000000; stroke-width:1.000000; stroke-opacity:1; 
stroke-linecap:round; stroke-linejoin:round;">
</g>
<g style="fill:#000000; fill-opacity:1.0; 
stroke:#000000; stroke-width:500000.000000; stroke-opacity:1; 
stroke-linecap:round; stroke-linejoin:round;">
</g>
<g style="fill:#000000; fill-opacity:0.0; 
stroke:#000000; stroke-width:500000.000000; stroke-opacity:1; 
stroke-linecap:round; stroke-linejoin:round;">
<path d="M133483168 73040244
L136540244 73040244
" />
<path d="M128920244 87571704
L128920244 77603168
" />
<path d="M137799755 89539755
L130888295 89539755
" />
<path d="M144170244 95910244
L137799755 89539755
" />
<path d="M130888295 89539755
L128920244 87571704
" />
<path d="M136540244 73040244
L140340244 76840244
" />
<path d="M140340244 76840244
L141610244 76840244
" />
<path d="M128920244 77603168
L133483168 73040244
" />
<path d="M145301614 93370244
L146641134 94709764
" />
<path d="M146641134 94709764
L150390724 94709764
" />
<path d="M144170244 93370244
L145301614 93370244
" />
<path d="M154799231 94709755
L153089755 94709755
" />
<path d="M155590244 93918742
L154799231 94709755
" />
<path d="M150390724 94709764
L151740244 93360244
" />
<path d="M155590244 86970244
L155590244 93918742
" />
<path d="M153089755 94709755
L151740244 93360244
" />
<path d="M148487809 80680733
L151780244 83973168
" />
<path d="M144932733 78130733
L147482733 80680733
" />
<path d="M130190244 78100244
L130190244 82427320
" />
<path d="M133990244 74300244
L130190244 78100244
" />
<path d="M155590244 84470244
L151780244 84470244
" />
<path d="M137820733 78130733
L144932733 78130733
" />
<path d="M130190244 82427320
L130963168 83200244
" />
<path d="M133990244 74300244
L137820733 78130733
" />
<path d="M136540244 83200244
L144170244 90830244
" />
<path d="M147482733 80680733
L148487809 80680733
" />
<path d="M151780244 84470244
L151780244 90820244
" />
<path d="M130963168 83200244
L136540244 83200244
" />
<path d="M141610244 81920244
L144150244 81920244
" />
<path d="M147970244 81930244
L144160244 81930244
" />
<path d="M149240244 90860244
L141549755 83169755
" />
<path d="M141549755 83169755
L140360733 83169755
" />
<path d="M140350244 80640244
L141610244 79380244
" />
<path d="M140360733 83169755
L140350244 83159266
" />
<path d="M140350244 83159266
L140350244 80640244
" />
<path d="M141610244 79380244
L144110244 79380244
" />
<path d="M155590244 79350244
L151820244 79350244
" />
<path d="M155590244 81890244
L156839755 83139755
" />
<path d="M156839755 83139755
L156839755 94650733
" />
<path d="M140350244 97170244
L136550244 93370244
" />
<path d="M155590244 81890244
L151820244 81890244
" />
<path d="M156839755 94650733
L154320244 97170244
" />
<path d="M154320244 97170244
L140350244 97170244
" />
<path d="M144129755 75549755
L140319755 75549755
" />
<path d="M133193418 72340724
L128220724 77313418
" />
<path d="M140319755 75549755
L137110724 72340724
" />
<path d="M128220724 87861454
L131179514 90820244
" />
<path d="M128220724 77313418
L128220724 87861454
" />
<path d="M137110724 72340724
L133193418 72340724
" />
<path d="M131179514 90820244
L132730244 90820244
" />
<path d="M147970244 79390244
L144129755 75549755
" />
<path d="M132730244 90820244
L136540244 90820244
" />
<path d="M142920733 92120733
L148000733 92120733
" />
<path d="M148000733 92120733
L149240244 93360244
" />
<path d="M132730244 88280244
L136540244 88280244
" />
<path d="M139090244 88290244
L142920733 92120733
" />
<path d="M136550244 88290244
L139090244 88290244
" />
<path d="M138951204 71641204
L132903667 71641205
" />
<path d="M127521204 77023668
L127521204 88151204
" />
<path d="M141610244 74300244
L138951204 71641204
" />
<path d="M135280244 95910244
L136550244 95910244
" />
<path d="M132903667 71641205
L127521204 77023668
" />
<path d="M127521204 88151204
L135280244 95910244
" />
<path d="M133990244 81920244
L137800244 81920244
" />
<path d="M133990244 81920244
L131470244 81920244
" />
<path d="M137800244 81920244
L144170244 88290244
" />
<path d="M131460244 79390244
L133980244 79390244
" />
<path d="M133990244 79380244
L133990244 76840244
" />
</g>
<g >
</g>
<g style="fill:#000000; fill-opacity:0.0; 
stroke:#000000; stroke-width:500000.000000; stroke-opacity:1; 
stroke-linecap:round; stroke-linejoin:round;">
<g >
</g>
<g style="fill:#000000; fill-opacity:1.0; 
stroke:#000000; stroke-width:1.000000; stroke-opacity:1; 
stroke-linecap:round; stroke-linejoin:round;">
<path style="fill:#000000; fill-opacity:1.0; 
stroke:#000000; stroke-width:1.000000; stroke-opacity:1; 
stroke-linecap:round; stroke-linejoin:round;fill-rule:evenodd;"
d="M 138791994.000000,89068746.000000
138812968.000000,89085649.000000
142336963.000000,92609644.000000
142349349.000000,92624056.000000
142357882.000000,92635651.000000
142357887.000000,92635656.000000
142362225.000000,92641551.000000
142367803.000000,92646290.000000
142367806.000000,92646293.000000
142402501.000000,92675768.000000
142410017.000000,92682698.000000
142415712.000000,92688393.000000
142418594.000000,92690673.000000
142437984.000000,92706014.000000
142441388.000000,92708805.000000
142452779.000000,92718482.000000
142497018.000000,92756066.000000
142503534.000000,92759394.000000
142508571.000000,92762753.000000
142513710.000000,92765927.000000
142519449.000000,92770467.000000
142526082.000000,92773567.000000
142585570.000000,92801369.000000
142589524.000000,92803302.000000
142654541.000000,92836502.000000
142661657.000000,92838243.000000
142667287.000000,92840337.000000
142673054.000000,92842256.000000
142679683.000000,92845354.000000
142686843.000000,92846843.000000
142686845.000000,92846844.000000
142751129.000000,92860215.000000
142755418.000000,92861186.000000
142814802.000000,92875717.000000
142876217.000000,92911337.000000
142908624.000000,92974505.000000
142906561.000000,93030717.000000
142894263.000000,93076615.000000
142876701.000000,93142157.000000
142856746.000000,93370244.000000
142876701.000000,93598331.000000
142935960.000000,93819487.000000
142938283.000000,93824468.000000
142938283.000000,93824469.000000
143030395.000000,94022006.000000
143030398.000000,94022011.000000
143032721.000000,94026993.000000
143164046.000000,94214544.000000
143325944.000000,94376442.000000
143330451.000000,94379598.000000
143330455.000000,94379601.000000
143408633.000000,94434342.000000
143513495.000000,94507767.000000
143518477.000000,94510090.000000
143518482.000000,94510093.000000
143716019.000000,94602205.000000
143721001.000000,94604528.000000
143726309.000000,94605950.000000
143726311.000000,94605951.000000
143936842.000000,94662363.000000
143936844.000000,94662363.000000
143942157.000000,94663787.000000
144170244.000000,94683742.000000
144398331.000000,94663787.000000
144403644.000000,94662363.000000
144403646.000000,94662363.000000
144614177.000000,94605951.000000
144614179.000000,94605950.000000
144619487.000000,94604528.000000
144624469.000000,94602205.000000
144822006.000000,94510093.000000
144822011.000000,94510090.000000
144826993.000000,94507767.000000
144964571.000000,94411434.000000
145010037.000000,94379598.000000
145010038.000000,94379597.000000
145014544.000000,94376442.000000
145018434.000000,94372552.000000
145018440.000000,94372547.000000
145035743.000000,94355244.000000
145098055.000000,94321218.000000
145168870.000000,94326283.000000
145213933.000000,94355244.000000
146057364.000000,95198675.000000
146069750.000000,95213087.000000
146078283.000000,95224682.000000
146078288.000000,95224687.000000
146082626.000000,95230582.000000
146088204.000000,95235321.000000
146088207.000000,95235324.000000
146122902.000000,95264799.000000
146130418.000000,95271729.000000
146136113.000000,95277424.000000
146138995.000000,95279704.000000
146158385.000000,95295045.000000
146161789.000000,95297836.000000
146211831.000000,95340350.000000
146217419.000000,95345097.000000
146223935.000000,95348425.000000
146228984.000000,95351792.000000
146234113.000000,95354959.000000
146239850.000000,95359498.000000
146306009.000000,95390419.000000
146309891.000000,95392316.000000
146374942.000000,95425533.000000
146382050.000000,95427272.000000
146387693.000000,95429371.000000
146393456.000000,95431288.000000
146400084.000000,95434386.000000
146407246.000000,95435876.000000
146407247.000000,95435876.000000
146471546.000000,95449250.000000
146475830.000000,95450220.000000
146546744.000000,95467572.000000
146552346.000000,95467920.000000
146552349.000000,95467920.000000
146557898.000000,95468264.000000
146557896.000000,95468300.000000
146561889.000000,95468539.000000
146566081.000000,95468913.000000
146573249.000000,95470404.000000
146650654.000000,95468310.000000
146654062.000000,95468264.000000
150323654.000000,95468264.000000
150342604.000000,95469697.000000
150356839.000000,95471863.000000
150356843.000000,95471863.000000
150364073.000000,95472963.000000
150371365.000000,95472370.000000
150371368.000000,95472370.000000
150416742.000000,95468679.000000
150426957.000000,95468264.000000
150435017.000000,95468264.000000
150452404.000000,95466237.000000
150463231.000000,95464975.000000
150467606.000000,95464542.000000
150533063.000000,95459218.000000
150533066.000000,95459217.000000
150540361.000000,95458624.000000
150547325.000000,95456368.000000
150553284.000000,95455177.000000
150559139.000000,95453793.000000
150566405.000000,95452946.000000
150635051.000000,95428029.000000
150639179.000000,95426612.000000
150701660.000000,95406371.000000
150701662.000000,95406370.000000
150708623.000000,95404115.000000
150714878.000000,95400319.000000
150720352.000000,95397813.000000
150725782.000000,95395094.000000
150732661.000000,95392597.000000
150738782.000000,95388584.000000
150793700.000000,95352578.000000
150797404.000000,95350241.000000
150859831.000000,95312359.000000
150868208.000000,95304961.000000
150868232.000000,95304988.000000
150871224.000000,95302335.000000
150874457.000000,95299632.000000
150880576.000000,95295620.000000
150933852.000000,95239381.000000
150936230.000000,95236939.000000
151389284.000000,94783885.000000
151451596.000000,94749859.000000
151503500.000000,94749510.000000
151567829.000000,94762598.000000
151567837.000000,94762599.000000
151572900.000000,94763629.000000
151703568.000000,94768420.000000
151799193.000000,94771927.000000
151799197.000000,94771927.000000
151804357.000000,94772116.000000
151986838.000000,94748739.000000
152056947.000000,94759923.000000
152091942.000000,94784623.000000
152505985.000000,95198666.000000
152518371.000000,95213078.000000
152526904.000000,95224673.000000
152526909.000000,95224678.000000
152531247.000000,95230573.000000
152536825.000000,95235312.000000
152536828.000000,95235315.000000
152571523.000000,95264790.000000
152579039.000000,95271720.000000
152584735.000000,95277416.000000
152587596.000000,95279679.000000
152587601.000000,95279684.000000
152607021.000000,95295048.000000
152610421.000000,95297836.000000
152666040.000000,95345088.000000
152672553.000000,95348414.000000
152677592.000000,95351775.000000
152682734.000000,95354951.000000
152688471.000000,95359489.000000
152754630.000000,95390410.000000
152758524.000000,95392313.000000
152823563.000000,95425524.000000
152830672.000000,95427263.000000
152836306.000000,95429359.000000
152842076.000000,95431278.000000
152848705.000000,95434377.000000
152855868.000000,95435867.000000
152855871.000000,95435868.000000
152906585.000000,95446416.000000
152920190.000000,95449246.000000
152924456.000000,95450212.000000
152995365.000000,95467563.000000
153000967.000000,95467911.000000
153000970.000000,95467911.000000
153006519.000000,95468255.000000
153006517.000000,95468290.000000
153010489.000000,95468530.000000
153014710.000000,95468907.000000
153021870.000000,95470396.000000
153099297.000000,95468301.000000
153102705.000000,95468255.000000
154645362.000000,95468255.000000
154713483.000000,95488257.000000
154759976.000000,95541913.000000
154770080.000000,95612187.000000
154740586.000000,95676767.000000
154734457.000000,95683350.000000
154042968.000000,96374839.000000
153980656.000000,96408865.000000
153953873.000000,96411744.000000
140716615.000000,96411744.000000
140648494.000000,96391742.000000
140627520.000000,96374839.000000
137885915.000000,93633234.000000
137851889.000000,93570922.000000
137849489.000000,93533157.000000
137863263.000000,93375719.000000
137863742.000000,93370244.000000
137843787.000000,93142157.000000
137826225.000000,93076615.000000
137785951.000000,92926311.000000
137785950.000000,92926309.000000
137784528.000000,92921001.000000
137776771.000000,92904365.000000
137690093.000000,92718482.000000
137690090.000000,92718477.000000
137687767.000000,92713495.000000
137581224.000000,92561336.000000
137559601.000000,92530455.000000
137559599.000000,92530452.000000
137556442.000000,92525944.000000
137394544.000000,92364046.000000
137390036.000000,92360889.000000
137390033.000000,92360887.000000
137267189.000000,92274871.000000
137206993.000000,92232721.000000
137202011.000000,92230398.000000
137202006.000000,92230395.000000
137167787.000000,92214439.000000
137114502.000000,92167522.000000
137095041.000000,92099245.000000
137115583.000000,92031285.000000
137167787.000000,91986049.000000
137202006.000000,91970093.000000
137202011.000000,91970090.000000
137206993.000000,91967767.000000
137341863.000000,91873330.000000
137390033.000000,91839601.000000
137390036.000000,91839599.000000
137394544.000000,91836442.000000
137556442.000000,91674544.000000
137560716.000000,91668441.000000
137684610.000000,91491501.000000
137687767.000000,91486993.000000
137690090.000000,91482011.000000
137690093.000000,91482006.000000
137782205.000000,91284469.000000
137782205.000000,91284468.000000
137784528.000000,91279487.000000
137803541.000000,91208532.000000
137842363.000000,91063646.000000
137842364.000000,91063643.000000
137843787.000000,91058331.000000
137863742.000000,90830244.000000
137843787.000000,90602157.000000
137784528.000000,90381001.000000
137782205.000000,90376019.000000
137690093.000000,90178482.000000
137690090.000000,90178477.000000
137687767.000000,90173495.000000
137564820.000000,89997909.000000
137559601.000000,89990455.000000
137559599.000000,89990452.000000
137556442.000000,89985944.000000
137394544.000000,89824046.000000
137390033.000000,89820887.000000
137385820.000000,89817352.000000
137386771.000000,89816218.000000
137346773.000000,89766173.000000
137339468.000000,89695554.000000
137371502.000000,89632195.000000
137432706.000000,89596214.000000
137449761.000000,89593162.000000
137460560.000000,89591989.000000
137596949.000000,89540859.000000
137713505.000000,89453505.000000
137800859.000000,89336949.000000
137851989.000000,89200560.000000
137856272.000000,89161136.000000
137883514.000000,89095574.000000
137941878.000000,89055148.000000
137981535.000000,89048744.000000
138723873.000000,89048744.000000
Z" /> 
<path style="fill:#000000; fill-opacity:1.0; 
stroke:#000000; stroke-width:1.000000; stroke-opacity:1; 
stroke-linecap:round; stroke-linejoin:round;fill-rule:evenodd;"
d="M 132600576.000000,74110413.000000
132657412.000000,74152960.000000
132682223.000000,74219480.000000
132682064.000000,74239451.000000
132677225.000000,74294758.000000
132677225.000000,74294769.000000
132676746.000000,74300244.000000
132677225.000000,74305719.000000
132690999.000000,74463157.000000
132677010.000000,74532762.000000
132654573.000000,74563234.000000
129701333.000000,77516474.000000
129686921.000000,77528860.000000
129675326.000000,77537393.000000
129675321.000000,77537398.000000
129669426.000000,77541736.000000
129664687.000000,77547314.000000
129664684.000000,77547317.000000
129635209.000000,77582012.000000
129628279.000000,77589528.000000
129622584.000000,77595223.000000
129620304.000000,77598105.000000
129604963.000000,77617495.000000
129602172.000000,77620899.000000
129559653.000000,77670947.000000
129554911.000000,77676529.000000
129551583.000000,77683045.000000
129548216.000000,77688094.000000
129545049.000000,77693223.000000
129540510.000000,77698960.000000
129509589.000000,77765119.000000
129507686.000000,77769013.000000
129474475.000000,77834052.000000
129472736.000000,77841160.000000
129470637.000000,77846803.000000
129468720.000000,77852566.000000
129465622.000000,77859194.000000
129464132.000000,77866356.000000
129464132.000000,77866357.000000
129450758.000000,77930656.000000
129449788.000000,77934940.000000
129432436.000000,78005854.000000
129431744.000000,78017008.000000
129431708.000000,78017006.000000
129431469.000000,78020999.000000
129431095.000000,78025191.000000
129429604.000000,78032359.000000
129429802.000000,78039676.000000
129431698.000000,78109765.000000
129431744.000000,78113172.000000
129431744.000000,82360250.000000
129430311.000000,82379200.000000
129427045.000000,82400669.000000
129427638.000000,82407961.000000
129427638.000000,82407964.000000
129431329.000000,82453338.000000
129431744.000000,82463553.000000
129431744.000000,82471613.000000
129432169.000000,82475257.000000
129435033.000000,82499827.000000
129435466.000000,82504202.000000
129441384.000000,82576957.000000
129443640.000000,82583921.000000
129444831.000000,82589880.000000
129446215.000000,82595735.000000
129447062.000000,82603001.000000
129471979.000000,82671647.000000
129473396.000000,82675775.000000
129492435.000000,82734544.000000
129495893.000000,82745219.000000
129499689.000000,82751474.000000
129502195.000000,82756948.000000
129504914.000000,82762378.000000
129507411.000000,82769257.000000
129511424.000000,82775377.000000
129511424.000000,82775378.000000
129547430.000000,82830296.000000
129549767.000000,82834000.000000
129587649.000000,82896427.000000
129591365.000000,82900635.000000
129591366.000000,82900636.000000
129595047.000000,82904804.000000
129595020.000000,82904828.000000
129597673.000000,82907820.000000
129600376.000000,82911053.000000
129604388.000000,82917172.000000
129656933.000000,82966949.000000
129660627.000000,82970448.000000
129663069.000000,82972826.000000
130379398.000000,83689155.000000
130391784.000000,83703567.000000
130400317.000000,83715162.000000
130400322.000000,83715167.000000
130404660.000000,83721062.000000
130410238.000000,83725801.000000
130410241.000000,83725804.000000
130444936.000000,83755279.000000
130452452.000000,83762209.000000
130458148.000000,83767905.000000
130461009.000000,83770168.000000
130461014.000000,83770173.000000
130480424.000000,83785529.000000
130483826.000000,83788318.000000
130539453.000000,83835577.000000
130545970.000000,83838905.000000
130551018.000000,83842271.000000
130556140.000000,83845434.000000
130561884.000000,83849979.000000
130628063.000000,83880908.000000
130631947.000000,83882807.000000
130696976.000000,83916013.000000
130704091.000000,83917754.000000
130709746.000000,83919857.000000
130715485.000000,83921766.000000
130722118.000000,83924866.000000
130793603.000000,83939735.000000
130797869.000000,83940701.000000
130868778.000000,83958052.000000
130874380.000000,83958400.000000
130874383.000000,83958400.000000
130879932.000000,83958744.000000
130879930.000000,83958779.000000
130883902.000000,83959019.000000
130888123.000000,83959396.000000
130895283.000000,83960885.000000
130972710.000000,83958790.000000
130976118.000000,83958744.000000
136173873.000000,83958744.000000
136241994.000000,83978746.000000
136262968.000000,83995649.000000
142834573.000000,90567254.000000
142868599.000000,90629566.000000
142870998.000000,90667331.000000
142867920.000000,90702511.000000
142842057.000000,90768629.000000
142784553.000000,90810269.000000
142713666.000000,90814209.000000
142653305.000000,90780624.000000
139674014.000000,87801333.000000
139661628.000000,87786921.000000
139653095.000000,87775326.000000
139653090.000000,87775321.000000
139648752.000000,87769426.000000
139643174.000000,87764687.000000
139643171.000000,87764684.000000
139608476.000000,87735209.000000
139600960.000000,87728279.000000
139595265.000000,87722584.000000
139589124.000000,87717726.000000
139572993.000000,87704963.000000
139569589.000000,87702172.000000
139519541.000000,87659653.000000
139519539.000000,87659652.000000
139513959.000000,87654911.000000
139507443.000000,87651583.000000
139502394.000000,87648216.000000
139497265.000000,87645049.000000
139491528.000000,87640510.000000
139425369.000000,87609589.000000
139421469.000000,87607683.000000
139356436.000000,87574475.000000
139349328.000000,87572736.000000
139343685.000000,87570637.000000
139337922.000000,87568720.000000
139331294.000000,87565622.000000
139259827.000000,87550757.000000
139255543.000000,87549787.000000
139245269.000000,87547273.000000
139184634.000000,87532436.000000
139179032.000000,87532088.000000
139179029.000000,87532088.000000
139173480.000000,87531744.000000
139173482.000000,87531708.000000
139169489.000000,87531469.000000
139165297.000000,87531095.000000
139158129.000000,87529604.000000
139091919.000000,87531395.000000
139080723.000000,87531698.000000
139077316.000000,87531744.000000
137981535.000000,87531744.000000
137913414.000000,87511742.000000
137866921.000000,87458086.000000
137856272.000000,87419352.000000
137854947.000000,87407158.000000
137851989.000000,87379928.000000
137800859.000000,87243539.000000
137713505.000000,87126983.000000
137596949.000000,87039629.000000
137460560.000000,86988499.000000
137398378.000000,86981744.000000
135702110.000000,86981744.000000
135639928.000000,86988499.000000
135503539.000000,87039629.000000
135386983.000000,87126983.000000
135299629.000000,87243539.000000
135248499.000000,87379928.000000
135247646.000000,87387781.000000
135247645.000000,87387785.000000
135245303.000000,87409350.000000
135218062.000000,87474912.000000
135159700.000000,87515340.000000
135120040.000000,87521744.000000
133862111.000000,87521744.000000
133793990.000000,87501742.000000
133758899.000000,87468016.000000
133736442.000000,87435944.000000
133574544.000000,87274046.000000
133570036.000000,87270889.000000
133570033.000000,87270887.000000
133458586.000000,87192851.000000
133386993.000000,87142721.000000
133382011.000000,87140398.000000
133382006.000000,87140395.000000
133184469.000000,87048283.000000
133184468.000000,87048283.000000
133179487.000000,87045960.000000
133174179.000000,87044538.000000
133174177.000000,87044537.000000
132963646.000000,86988125.000000
132963644.000000,86988125.000000
132958331.000000,86986701.000000
132730244.000000,86966746.000000
132502157.000000,86986701.000000
132496844.000000,86988125.000000
132496842.000000,86988125.000000
132286311.000000,87044537.000000
132286309.000000,87044538.000000
132281001.000000,87045960.000000
132276020.000000,87048283.000000
132276019.000000,87048283.000000
132078482.000000,87140395.000000
132078477.000000,87140398.000000
132073495.000000,87142721.000000
132001902.000000,87192851.000000
131890455.000000,87270887.000000
131890452.000000,87270889.000000
131885944.000000,87274046.000000
131724046.000000,87435944.000000
131720889.000000,87440452.000000
131720887.000000,87440455.000000
131668452.000000,87515340.000000
131592721.000000,87623495.000000
131590398.000000,87628477.000000
131590395.000000,87628482.000000
131512939.000000,87794589.000000
131495960.000000,87831001.000000
131436701.000000,88052157.000000
131416746.000000,88280244.000000
131436701.000000,88508331.000000
131438125.000000,88513644.000000
131438125.000000,88513646.000000
131486849.000000,88695483.000000
131495960.000000,88729487.000000
131498283.000000,88734468.000000
131498283.000000,88734469.000000
131590395.000000,88932006.000000
131590398.000000,88932011.000000
131592721.000000,88936993.000000
131724046.000000,89124544.000000
131885944.000000,89286442.000000
131890452.000000,89289599.000000
131890455.000000,89289601.000000
131900225.000000,89296442.000000
132073495.000000,89417767.000000
132078477.000000,89420090.000000
132078482.000000,89420093.000000
132112701.000000,89436049.000000
132165986.000000,89482966.000000
132185447.000000,89551243.000000
132164905.000000,89619203.000000
132112701.000000,89664439.000000
132078482.000000,89680395.000000
132078477.000000,89680398.000000
132073495.000000,89682721.000000
132059214.000000,89692721.000000
131890455.000000,89810887.000000
131890452.000000,89810889.000000
131885944.000000,89814046.000000
131724046.000000,89975944.000000
131701589.000000,90008015.000000
131646134.000000,90052343.000000
131598377.000000,90061744.000000
131545885.000000,90061744.000000
131477764.000000,90041742.000000
131456790.000000,90024839.000000
129016129.000000,87584178.000000
128982103.000000,87521866.000000
128979224.000000,87495083.000000
128979224.000000,77679789.000000
128999226.000000,77611668.000000
129016129.000000,77590694.000000
132467449.000000,74139374.000000
132529761.000000,74105348.000000
Z" /> 
<path style="fill:#000000; fill-opacity:1.0; 
stroke:#000000; stroke-width:1.000000; stroke-opacity:1; 
stroke-linecap:round; stroke-linejoin:round;fill-rule:evenodd;"
d="M 136812474.000000,73119226.000000
136833448.000000,73136129.000000
139735985.000000,76038666.000000
139748371.000000,76053078.000000
139756904.000000,76064673.000000
139756909.000000,76064678.000000
139761247.000000,76070573.000000
139766825.000000,76075312.000000
139766828.000000,76075315.000000
139801523.000000,76104790.000000
139809039.000000,76111720.000000
139814734.000000,76117415.000000
139817616.000000,76119695.000000
139837006.000000,76135036.000000
139840410.000000,76137827.000000
139890458.000000,76180346.000000
139896040.000000,76185088.000000
139902556.000000,76188416.000000
139907605.000000,76191783.000000
139912734.000000,76194950.000000
139918471.000000,76199489.000000
139984630.000000,76230410.000000
139988524.000000,76232313.000000
140053563.000000,76265524.000000
140060671.000000,76267263.000000
140066314.000000,76269362.000000
140072077.000000,76271279.000000
140078705.000000,76274377.000000
140085867.000000,76275867.000000
140085868.000000,76275867.000000
140150167.000000,76289241.000000
140154451.000000,76290211.000000
140225365.000000,76307563.000000
140230967.000000,76307911.000000
140230970.000000,76307911.000000
140236519.000000,76308255.000000
140236517.000000,76308291.000000
140240510.000000,76308530.000000
140244702.000000,76308904.000000
140251870.000000,76310395.000000
140329275.000000,76308301.000000
140332683.000000,76308255.000000
143763384.000000,76308255.000000
143831505.000000,76328257.000000
143852479.000000,76345160.000000
144664457.000000,77157138.000000
144698483.000000,77219450.000000
144693418.000000,77290265.000000
144650871.000000,77347101.000000
144584351.000000,77371912.000000
144575362.000000,77372233.000000
138187104.000000,77372233.000000
138118983.000000,77352231.000000
138098009.000000,77335328.000000
135325915.000000,74563234.000000
135291889.000000,74500922.000000
135289489.000000,74463157.000000
135303263.000000,74305719.000000
135303742.000000,74300244.000000
135283787.000000,74072157.000000
135224528.000000,73851001.000000
135222205.000000,73846019.000000
135130093.000000,73648482.000000
135130090.000000,73648477.000000
135127767.000000,73643495.000000
134996442.000000,73455944.000000
134854817.000000,73314319.000000
134820791.000000,73252007.000000
134825856.000000,73181192.000000
134868403.000000,73124356.000000
134934923.000000,73099545.000000
134943912.000000,73099224.000000
136744353.000000,73099224.000000
Z" /> 
</g>
</g>
</g>
<g style="fill:#FFFFFF; fill-opacity:1.0; 
stroke:#FFFFFF; stroke-width:1.000000; stroke-opacity:1; 
stroke-linecap:round; stroke-linejoin:round;">
<circle cx="131460244.000000" cy="81930244.000000" r="400000.000000" /> 
</g>
<g style="fill:#FFFFFF; fill-opacity:1.0; 
stroke:#FFFFFF; stroke-width:21200.000000; stroke-opacity:1; 
stroke-linecap:round; stroke-linejoin:round;">
</g>
<g style="fill:#FFFFFF; fill-opacity:1.0; 
stroke:#FFFFFF; stroke-width:1.000000; stroke-opacity:1; 
stroke-linecap:round; stroke-linejoin:round;">
<circle cx="147970244.000000" cy="79390244.000000" r="400000.000000" /> 
</g>
<g style="fill:#FFFFFF; fill-opacity:1.0; 
stroke:#FFFFFF; stroke-width:21200.000000; stroke-opacity:1; 
stroke-linecap:round; stroke-linejoin:round;">
</g>
<g style="fill:#FFFFFF; fill-opacity:1.0; 
stroke:#FFFFFF; stroke-width:1.000000; stroke-opacity:1; 
stroke-linecap:round; stroke-linejoin:round;">
<circle cx="147970244.000000" cy="81930244.000000" r="400000.000000" /> 
</g>
<g style="fill:#FFFFFF; fill-opacity:1.0; 
stroke:#FFFFFF; stroke-width:21200.000000; stroke-opacity:1; 
stroke-linecap:round; stroke-linejoin:round;">
</g>
<g style="fill:#FFFFFF; fill-opacity:1.0; 
stroke:#FFFFFF; stroke-width:1.000000; stroke-opacity:1; 
stroke-linecap:round; stroke-linejoin:round;">
<circle cx="149240244.000000" cy="93360244.000000" r="500000.000000" /> 
</g>
<g style="fill:#FFFFFF; fill-opacity:1.0; 
stroke:#FFFFFF; stroke-width:21200.000000; stroke-opacity:1; 
stroke-linecap:round; stroke-linejoin:round;">
</g>
<g style="fill:#FFFFFF; fill-opacity:1.0; 
stroke:#FFFFFF; stroke-width:1.000000; stroke-opacity:1; 
stroke-linecap:round; stroke-linejoin:round;">
<circle cx="151740244.000000" cy="93360244.000000" r="500000.000000" /> 
</g>
<g style="fill:#FFFFFF; fill-opacity:1.0; 
stroke:#FFFFFF; stroke-width:21200.000000; stroke-opacity:1; 
stroke-linecap:round; stroke-linejoin:round;">
</g>
<g style="fill:#FFFFFF; fill-opacity:1.0; 
stroke:#FFFFFF; stroke-width:1.000000; stroke-opacity:1; 
stroke-linecap:round; stroke-linejoin:round;">
<circle cx="154240244.000000" cy="93360244.000000" r="500000.000000" /> 
</g>
<g style="fill:#FFFFFF; fill-opacity:1.0; 
stroke:#FFFFFF; stroke-width:21200.000000; stroke-opacity:1; 
stroke-linecap:round; stroke-linejoin:round;">
</g>
<g style="fill:#FFFFFF; fill-opacity:1.0; 
stroke:#FFFFFF; stroke-width:1.000000; stroke-opacity:1; 
stroke-linecap:round; stroke-linejoin:round;">
<circle cx="149240244.000000" cy="90860244.000000" r="500000.000000" /> 
</g>
<g style="fill:#FFFFFF; fill-opacity:1.0; 
stroke:#FFFFFF; stroke-width:21200.000000; stroke-opacity:1; 
stroke-linecap:round; stroke-linejoin:round;">
</g>
<g style="fill:#FFFFFF; fill-opacity:1.0; 
stroke:#FFFFFF; stroke-width:1.000000; stroke-opacity:1; 
stroke-linecap:round; stroke-linejoin:round;">
<circle cx="151740244.000000" cy="90860244.000000" r="500000.000000" /> 
</g>
<g style="fill:#FFFFFF; fill-opacity:1.0; 
stroke:#FFFFFF; stroke-width:21200.000000; stroke-opacity:1; 
stroke-linecap:round; stroke-linejoin:round;">
</g>
<g style="fill:#FFFFFF; fill-opacity:1.0; 
stroke:#FFFFFF; stroke-width:1.000000; stroke-opacity:1; 
stroke-linecap:round; stroke-linejoin:round;">
<circle cx="154240244.000000" cy="90860244.000000" r="500000.000000" /> 
</g>
<g style="fill:#FFFFFF; fill-opacity:1.0; 
stroke:#FFFFFF; stroke-width:21200.000000; stroke-opacity:1; 
stroke-linecap:round; stroke-linejoin:round;">
</g>
<g style="fill:#FFFFFF; fill-opacity:1.0; 
stroke:#FFFFFF; stroke-width:1.000000; stroke-opacity:1; 
stroke-linecap:round; stroke-linejoin:round;">
<circle cx="151780244.000000" cy="79390244.000000" r="400000.000000" /> 
</g>
<g style="fill:#FFFFFF; fill-opacity:1.0; 
stroke:#FFFFFF; stroke-width:21200.000000; stroke-opacity:1; 
stroke-linecap:round; stroke-linejoin:round;">
</g>
<g style="fill:#FFFFFF; fill-opacity:1.0; 
stroke:#FFFFFF; stroke-width:1.000000; stroke-opacity:1; 
stroke-linecap:round; stroke-linejoin:round;">
<circle cx="155590244.000000" cy="86970244.000000" r="400000.000000" /> 
</g>
<g style="fill:#FFFFFF; fill-opacity:1.0; 
stroke:#FFFFFF; stroke-width:21200.000000; stroke-opacity:1; 
stroke-linecap:round; stroke-linejoin:round;">
</g>
<g style="fill:#FFFFFF; fill-opacity:1.0; 
stroke:#FFFFFF; stroke-width:1.000000; stroke-opacity:1; 
stroke-linecap:round; stroke-linejoin:round;">
<circle cx="155590244.000000" cy="84470244.000000" r="400000.000000" /> 
</g>
<g style="fill:#FFFFFF; fill-opacity:1.0; 
stroke:#FFFFFF; stroke-width:21200.000000; stroke-opacity:1; 
stroke-linecap:round; stroke-linejoin:round;">
</g>
<g style="fill:#FFFFFF; fill-opacity:1.0; 
stroke:#FFFFFF; stroke-width:1.000000; stroke-opacity:1; 
stroke-linecap:round; stroke-linejoin:round;">
<circle cx="141610244.000000" cy="81920244.000000" r="400000.000000" /> 
</g>
<g style="fill:#FFFFFF; fill-opacity:1.0; 
stroke:#FFFFFF; stroke-width:21200.000000; stroke-opacity:1; 
stroke-linecap:round; stroke-linejoin:round;">
</g>
<g style="fill:#FFFFFF; fill-opacity:1.0; 
stroke:#FFFFFF; stroke-width:1.000000; stroke-opacity:1; 
stroke-linecap:round; stroke-linejoin:round;">
<circle cx="141610244.000000" cy="79380244.000000" r="400000.000000" /> 
</g>
<g style="fill:#FFFFFF; fill-opacity:1.0; 
stroke:#FFFFFF; stroke-width:21200.000000; stroke-opacity:1; 
stroke-linecap:round; stroke-linejoin:round;">
</g>
<g style="fill:#FFFFFF; fill-opacity:1.0; 
stroke:#FFFFFF; stroke-width:1.000000; stroke-opacity:1; 
stroke-linecap:round; stroke-linejoin:round;">
<circle cx="141610244.000000" cy="76840244.000000" r="400000.000000" /> 
</g>
<g style="fill:#FFFFFF; fill-opacity:1.0; 
stroke:#FFFFFF; stroke-width:21200.000000; stroke-opacity:1; 
stroke-linecap:round; stroke-linejoin:round;">
</g>
<g style="fill:#FFFFFF; fill-opacity:1.0; 
stroke:#FFFFFF; stroke-width:1.000000; stroke-opacity:1; 
stroke-linecap:round; stroke-linejoin:round;">
<circle cx="141610244.000000" cy="74300244.000000" r="400000.000000" /> 
</g>
<g style="fill:#FFFFFF; fill-opacity:1.0; 
stroke:#FFFFFF; stroke-width:21200.000000; stroke-opacity:1; 
stroke-linecap:round; stroke-linejoin:round;">
</g>
<g style="fill:#FFFFFF; fill-opacity:1.0; 
stroke:#FFFFFF; stroke-width:1.000000; stroke-opacity:1; 
stroke-linecap:round; stroke-linejoin:round;">
<circle cx="133990244.000000" cy="74300244.000000" r="400000.000000" /> 
</g>
<g style="fill:#FFFFFF; fill-opacity:1.0; 
stroke:#FFFFFF; stroke-width:21200.000000; stroke-opacity:1; 
stroke-linecap:round; stroke-linejoin:round;">
</g>
<g style="fill:#FFFFFF; fill-opacity:1.0; 
stroke:#FFFFFF; stroke-width:1.000000; stroke-opacity:1; 
stroke-linecap:round; stroke-linejoin:round;">
<circle cx="133990244.000000" cy="76840244.000000" r="400000.000000" /> 
</g>
<g style="fill:#FFFFFF; fill-opacity:1.0; 
stroke:#FFFFFF; stroke-width:21200.000000; stroke-opacity:1; 
stroke-linecap:round; stroke-linejoin:round;">
</g>
<g style="fill:#FFFFFF; fill-opacity:1.0; 
stroke:#FFFFFF; stroke-width:1.000000; stroke-opacity:1; 
stroke-linecap:round; stroke-linejoin:round;">
<circle cx="133990244.000000" cy="79380244.000000" r="400000.000000" /> 
</g>
<g style="fill:#FFFFFF; fill-opacity:1.0; 
stroke:#FFFFFF; stroke-width:21200.000000; stroke-opacity:1; 
stroke-linecap:round; stroke-linejoin:round;">
</g>
<g style="fill:#FFFFFF; fill-opacity:1.0; 
stroke:#FFFFFF; stroke-width:1.000000; stroke-opacity:1; 
stroke-linecap:round; stroke-linejoin:round;">
<circle cx="133990244.000000" cy="81920244.000000" r="400000.000000" /> 
</g>
<g style="fill:#FFFFFF; fill-opacity:1.0; 
stroke:#FFFFFF; stroke-width:21200.000000; stroke-opacity:1; 
stroke-linecap:round; stroke-linejoin:round;">
</g>
<g style="fill:#FFFFFF; fill-opacity:1.0; 
stroke:#FFFFFF; stroke-width:1.000000; stroke-opacity:1; 
stroke-linecap:round; stroke-linejoin:round;">
<circle cx="151780244.000000" cy="81930244.000000" r="400000.000000" /> 
</g>
<g style="fill:#FFFFFF; fill-opacity:1.0; 
stroke:#FFFFFF; stroke-width:21200.000000; stroke-opacity:1; 
stroke-linecap:round; stroke-linejoin:round;">
</g>
<g style="fill:#FFFFFF; fill-opacity:1.0; 
stroke:#FFFFFF; stroke-width:1.000000; stroke-opacity:1; 
stroke-linecap:round; stroke-linejoin:round;">
<circle cx="151780244.000000" cy="84470244.000000" r="400000.000000" /> 
</g>
<g style="fill:#FFFFFF; fill-opacity:1.0; 
stroke:#FFFFFF; stroke-width:21200.000000; stroke-opacity:1; 
stroke-linecap:round; stroke-linejoin:round;">
</g>
<g style="fill:#FFFFFF; fill-opacity:1.0; 
stroke:#FFFFFF; stroke-width:1.000000; stroke-opacity:1; 
stroke-linecap:round; stroke-linejoin:round;">
<circle cx="131460244.000000" cy="79390244.000000" r="400000.000000" /> 
</g>
<g style="fill:#FFFFFF; fill-opacity:1.0; 
stroke:#FFFFFF; stroke-width:21200.000000; stroke-opacity:1; 
stroke-linecap:round; stroke-linejoin:round;">
</g>
<g style="fill:#FFFFFF; fill-opacity:1.0; 
stroke:#FFFFFF; stroke-width:1.000000; stroke-opacity:1; 
stroke-linecap:round; stroke-linejoin:round;">
<circle cx="155590244.000000" cy="79350244.000000" r="400000.000000" /> 
</g>
<g style="fill:#FFFFFF; fill-opacity:1.0; 
stroke:#FFFFFF; stroke-width:21200.000000; stroke-opacity:1; 
stroke-linecap:round; stroke-linejoin:round;">
</g>
<g style="fill:#FFFFFF; fill-opacity:1.0; 
stroke:#FFFFFF; stroke-width:1.000000; stroke-opacity:1; 
stroke-linecap:round; stroke-linejoin:round;">
<circle cx="155590244.000000" cy="81890244.000000" r="400000.000000" /> 
</g>
<g style="fill:#FFFFFF; fill-opacity:1.0; 
stroke:#FFFFFF; stroke-width:21200.000000; stroke-opacity:1; 
stroke-linecap:round; stroke-linejoin:round;">
</g>
<g style="fill:#FFFFFF; fill-opacity:1.0; 
stroke:#FFFFFF; stroke-width:1.000000; stroke-opacity:1; 
stroke-linecap:round; stroke-linejoin:round;">
<circle cx="144272000.000000" cy="81930244.000000" r="400000.000000" /> 
</g>
<g style="fill:#FFFFFF; fill-opacity:1.0; 
stroke:#FFFFFF; stroke-width:21200.000000; stroke-opacity:1; 
stroke-linecap:round; stroke-linejoin:round;">
</g>
<g style="fill:#FFFFFF; fill-opacity:1.0; 
stroke:#FFFFFF; stroke-width:1.000000; stroke-opacity:1; 
stroke-linecap:round; stroke-linejoin:round;">
<circle cx="144272000.000000" cy="79430244.000000" r="400000.000000" /> 
</g>
<g style="fill:#FFFFFF; fill-opacity:1.0; 
stroke:#FFFFFF; stroke-width:21200.000000; stroke-opacity:1; 
stroke-linecap:round; stroke-linejoin:round;">
</g>
<g style="fill:#FFFFFF; fill-opacity:1.0; 
stroke:#FFFFFF; stroke-width:1.000000; stroke-opacity:1; 
stroke-linecap:round; stroke-linejoin:round;">
<circle cx="132730244.000000" cy="90820244.000000" r="400000.000000" /> 
</g>
<g style="fill:#FFFFFF; fill-opacity:1.0; 
stroke:#FFFFFF; stroke-width:21200.000000; stroke-opacity:1; 
stroke-linecap:round; stroke-linejoin:round;">
</g>
<g style="fill:#FFFFFF; fill-opacity:1.0; 
stroke:#FFFFFF; stroke-width:1.000000; stroke-opacity:1; 
stroke-linecap:round; stroke-linejoin:round;">
<circle cx="132730244.000000" cy="88280244.000000" r="400000.000000" /> 
</g>
<g style="fill:#FFFFFF; fill-opacity:1.0; 
stroke:#FFFFFF; stroke-width:21200.000000; stroke-opacity:1; 
stroke-linecap:round; stroke-linejoin:round;">
</g>
<g style="fill:#FFFFFF; fill-opacity:1.0; 
stroke:#FFFFFF; stroke-width:1.000000; stroke-opacity:1; 
stroke-linecap:round; stroke-linejoin:round;">
<circle cx="136550244.000000" cy="88290244.000000" r="400000.000000" /> 
</g>
<g style="fill:#FFFFFF; fill-opacity:1.0; 
stroke:#FFFFFF; stroke-width:21200.000000; stroke-opacity:1; 
stroke-linecap:round; stroke-linejoin:round;">
</g>
<g style="fill:#FFFFFF; fill-opacity:1.0; 
stroke:#FFFFFF; stroke-width:1.000000; stroke-opacity:1; 
stroke-linecap:round; stroke-linejoin:round;">
<circle cx="136550244.000000" cy="90830244.000000" r="400000.000000" /> 
</g>
<g style="fill:#FFFFFF; fill-opacity:1.0; 
stroke:#FFFFFF; stroke-width:21200.000000; stroke-opacity:1; 
stroke-linecap:round; stroke-linejoin:round;">
</g>
<g style="fill:#FFFFFF; fill-opacity:1.0; 
stroke:#FFFFFF; stroke-width:1.000000; stroke-opacity:1; 
stroke-linecap:round; stroke-linejoin:round;">
<circle cx="136550244.000000" cy="93370244.000000" r="400000.000000" /> 
</g>
<g style="fill:#FFFFFF; fill-opacity:1.0; 
stroke:#FFFFFF; stroke-width:21200.000000; stroke-opacity:1; 
stroke-linecap:round; stroke-linejoin:round;">
</g>
<g style="fill:#FFFFFF; fill-opacity:1.0; 
stroke:#FFFFFF; stroke-width:1.000000; stroke-opacity:1; 
stroke-linecap:round; stroke-linejoin:round;">
<circle cx="136550244.000000" cy="95910244.000000" r="400000.000000" /> 
</g>
<g style="fill:#FFFFFF; fill-opacity:1.0; 
stroke:#FFFFFF; stroke-width:21200.000000; stroke-opacity:1; 
stroke-linecap:round; stroke-linejoin:round;">
</g>
<g style="fill:#FFFFFF; fill-opacity:1.0; 
stroke:#FFFFFF; stroke-width:1.000000; stroke-opacity:1; 
stroke-linecap:round; stroke-linejoin:round;">
<circle cx="144170244.000000" cy="95910244.000000" r="400000.000000" /> 
</g>
<g style="fill:#FFFFFF; fill-opacity:1.0; 
stroke:#FFFFFF; stroke-width:21200.000000; stroke-opacity:1; 
stroke-linecap:round; stroke-linejoin:round;">
</g>
<g style="fill:#FFFFFF; fill-opacity:1.0; 
stroke:#FFFFFF; stroke-width:1.000000; stroke-opacity:1; 
stroke-linecap:round; stroke-linejoin:round;">
<circle cx="144170244.000000" cy="93370244.000000" r="400000.000000" /> 
</g>
<g style="fill:#FFFFFF; fill-opacity:1.0; 
stroke:#FFFFFF; stroke-width:21200.000000; stroke-opacity:1; 
stroke-linecap:round; stroke-linejoin:round;">
</g>
<g style="fill:#FFFFFF; fill-opacity:1.0; 
stroke:#FFFFFF; stroke-width:1.000000; stroke-opacity:1; 
stroke-linecap:round; stroke-linejoin:round;">
<circle cx="144170244.000000" cy="90830244.000000" r="400000.000000" /> 
</g>
<g style="fill:#FFFFFF; fill-opacity:1.0; 
stroke:#FFFFFF; stroke-width:21200.000000; stroke-opacity:1; 
stroke-linecap:round; stroke-linejoin:round;">
</g>
<g style="fill:#FFFFFF; fill-opacity:1.0; 
stroke:#FFFFFF; stroke-width:1.000000; stroke-opacity:1; 
stroke-linecap:round; stroke-linejoin:round;">
<circle cx="144170244.000000" cy="88290244.000000" r="400000.000000" /> 
</g>
<g style="fill:#FFFFFF; fill-opacity:1.0; 
stroke:#FFFFFF; stroke-width:21200.000000; stroke-opacity:1; 
stroke-linecap:round; stroke-linejoin:round;">
</g>
<g style="fill:#FFFFFF; fill-opacity:1.0; 
stroke:#FFFFFF; stroke-width:1.000000; stroke-opacity:1; 
stroke-linecap:round; stroke-linejoin:round;">
<circle cx="131460244.000000" cy="84470244.000000" r="400000.000000" /> 
</g>
<g style="fill:#FFFFFF; fill-opacity:1.0; 
stroke:#FFFFFF; stroke-width:21200.000000; stroke-opacity:1; 
stroke-linecap:round; stroke-linejoin:round;">
</g>
<g style="fill:#000000; fill-opacity:1.0; 
stroke:#000000; stroke-width:21200.000000; stroke-opacity:1; 
stroke-linecap:round; stroke-linejoin:round;">
</g> 
</svg>
