%TF.GenerationSoftware,KiCad,Pcbnew,(6.0.11)*%
%TF.CreationDate,2023-12-07T00:15:46-07:00*%
%TF.ProjectId,Filter DualOp,46696c74-6572-4204-9475-616c4f702e6b,rev?*%
%TF.SameCoordinates,Original*%
%TF.FileFunction,Copper,L1,Top*%
%TF.FilePolarity,Positive*%
%FSLAX46Y46*%
G04 Gerber Fmt 4.6, Leading zero omitted, Abs format (unit mm)*
G04 Created by KiCad (PCBNEW (6.0.11)) date 2023-12-07 00:15:46*
%MOMM*%
%LPD*%
G01*
G04 APERTURE LIST*
G04 Aperture macros list*
%AMRoundRect*
0 Rectangle with rounded corners*
0 $1 Rounding radius*
0 $2 $3 $4 $5 $6 $7 $8 $9 X,Y pos of 4 corners*
0 Add a 4 corners polygon primitive as box body*
4,1,4,$2,$3,$4,$5,$6,$7,$8,$9,$2,$3,0*
0 Add four circle primitives for the rounded corners*
1,1,$1+$1,$2,$3*
1,1,$1+$1,$4,$5*
1,1,$1+$1,$6,$7*
1,1,$1+$1,$8,$9*
0 Add four rect primitives between the rounded corners*
20,1,$1+$1,$2,$3,$4,$5,0*
20,1,$1+$1,$4,$5,$6,$7,0*
20,1,$1+$1,$6,$7,$8,$9,0*
20,1,$1+$1,$8,$9,$2,$3,0*%
G04 Aperture macros list end*
%TA.AperFunction,Profile*%
%ADD10C,0.050000*%
%TD*%
%TA.AperFunction,ComponentPad*%
%ADD11O,1.600000X1.600000*%
%TD*%
%TA.AperFunction,ComponentPad*%
%ADD12C,1.600000*%
%TD*%
%TA.AperFunction,ComponentPad*%
%ADD13RoundRect,0.450000X-0.450000X0.450000X-0.450000X-0.450000X0.450000X-0.450000X0.450000X0.450000X0*%
%TD*%
%TA.AperFunction,ComponentPad*%
%ADD14C,1.800000*%
%TD*%
%TA.AperFunction,ComponentPad*%
%ADD15R,1.600000X1.600000*%
%TD*%
%TA.AperFunction,Conductor*%
%ADD16C,0.500000*%
%TD*%
G04 APERTURE END LIST*
D10*
X159400244Y-99710244D02*
X126380244Y-99710244D01*
X126380244Y-99710244D02*
X126380244Y-70500244D01*
X126380244Y-70500244D02*
X159400244Y-70500244D01*
X159400244Y-70500244D02*
X159400244Y-99710244D01*
D11*
%TO.P,,8,V+*%
%TO.N,+5V*%
X131460244Y-81930244D03*
%TD*%
D12*
%TO.P,R4,1*%
%TO.N,Net-(R3-Pad1)*%
X147970244Y-79390244D03*
D11*
%TO.P,R4,2*%
%TO.N,Net-(C2-Pad1)*%
X147970244Y-81930244D03*
%TD*%
D13*
%TO.P,RV1,1,1*%
%TO.N,Net-(R3-Pad2)*%
X149240244Y-93360244D03*
D14*
%TO.P,RV1,2,2*%
%TO.N,Net-(C1-Pad1)*%
X151740244Y-93360244D03*
%TO.P,RV1,3,3*%
%TO.N,unconnected-(RV1-Pad3)*%
X154240244Y-93360244D03*
%TO.P,RV1,4,4*%
%TO.N,Net-(C2-Pad2)*%
X149240244Y-90860244D03*
%TO.P,RV1,5,5*%
%TO.N,Net-(C1-Pad2)*%
X151740244Y-90860244D03*
%TO.P,RV1,6,6*%
%TO.N,unconnected-(RV1-Pad6)*%
X154240244Y-90860244D03*
%TD*%
D12*
%TO.P,,1*%
%TO.N,/V_in*%
X151780244Y-79390244D03*
%TD*%
%TO.P,C1,1*%
%TO.N,Net-(C1-Pad1)*%
X155590244Y-86970244D03*
%TO.P,C1,2*%
%TO.N,Net-(C1-Pad2)*%
X155590244Y-84470244D03*
%TD*%
D15*
%TO.P,U2,1*%
%TO.N,Net-(C2-Pad1)*%
X141610244Y-81920244D03*
D11*
%TO.P,U2,2,-*%
%TO.N,Net-(C2-Pad2)*%
X141610244Y-79380244D03*
%TO.P,U2,3,+*%
%TO.N,GND*%
X141610244Y-76840244D03*
%TO.P,U2,4,V-*%
%TO.N,-5V*%
X141610244Y-74300244D03*
%TO.P,U2,5,+*%
%TO.N,Net-(C1-Pad2)*%
X133990244Y-74300244D03*
%TO.P,U2,6,-*%
%TO.N,/V_out*%
X133990244Y-76840244D03*
%TO.P,U2,7*%
X133990244Y-79380244D03*
%TO.P,U2,8,V+*%
%TO.N,+5V*%
X133990244Y-81920244D03*
%TD*%
D12*
%TO.P,R2,1*%
%TO.N,Net-(R1-Pad2)*%
X151780244Y-81930244D03*
D11*
%TO.P,R2,2*%
%TO.N,Net-(C1-Pad2)*%
X151780244Y-84470244D03*
%TD*%
%TO.P,,7*%
%TO.N,/V_out*%
X131460244Y-79390244D03*
%TD*%
D12*
%TO.P,R1,1*%
%TO.N,/V_in*%
X155590244Y-79350244D03*
D11*
%TO.P,R1,2*%
%TO.N,Net-(R1-Pad2)*%
X155590244Y-81890244D03*
%TD*%
D12*
%TO.P,C2,1*%
%TO.N,Net-(C2-Pad1)*%
X144272000Y-81930244D03*
%TO.P,C2,2*%
%TO.N,Net-(C2-Pad2)*%
X144272000Y-79430244D03*
%TD*%
%TO.P,R3,1*%
%TO.N,Net-(R3-Pad1)*%
X132730244Y-90820244D03*
D11*
%TO.P,R3,2*%
%TO.N,Net-(R3-Pad2)*%
X132730244Y-88280244D03*
%TD*%
D15*
%TO.P,U1,1*%
%TO.N,Net-(R3-Pad2)*%
X136550244Y-88290244D03*
D11*
%TO.P,U1,2,-*%
%TO.N,Net-(R3-Pad1)*%
X136550244Y-90830244D03*
%TO.P,U1,3,+*%
%TO.N,Net-(R1-Pad2)*%
X136550244Y-93370244D03*
%TO.P,U1,4,V-*%
%TO.N,-5V*%
X136550244Y-95910244D03*
%TO.P,U1,5,+*%
%TO.N,GND*%
X144170244Y-95910244D03*
%TO.P,U1,6,-*%
%TO.N,Net-(C1-Pad1)*%
X144170244Y-93370244D03*
%TO.P,U1,7*%
%TO.N,Net-(C1-Pad2)*%
X144170244Y-90830244D03*
%TO.P,U1,8,V+*%
%TO.N,+5V*%
X144170244Y-88290244D03*
%TD*%
%TO.P,,5,+*%
%TO.N,GND*%
X131460244Y-84470244D03*
%TD*%
D16*
%TO.N,GND*%
X133483168Y-73040244D02*
X136540244Y-73040244D01*
X128920244Y-87571704D02*
X128920244Y-77603168D01*
X137799755Y-89539755D02*
X130888295Y-89539755D01*
X144170244Y-95910244D02*
X137799755Y-89539755D01*
X130888295Y-89539755D02*
X128920244Y-87571704D01*
X136540244Y-73040244D02*
X140340244Y-76840244D01*
X140340244Y-76840244D02*
X141610244Y-76840244D01*
X128920244Y-77603168D02*
X133483168Y-73040244D01*
%TO.N,Net-(C1-Pad1)*%
X145301614Y-93370244D02*
X146641134Y-94709764D01*
X146641134Y-94709764D02*
X150390724Y-94709764D01*
X144170244Y-93370244D02*
X145301614Y-93370244D01*
X154799231Y-94709755D02*
X153089755Y-94709755D01*
X155590244Y-93918742D02*
X154799231Y-94709755D01*
X150390724Y-94709764D02*
X151740244Y-93360244D01*
X155590244Y-86970244D02*
X155590244Y-93918742D01*
X153089755Y-94709755D02*
X151740244Y-93360244D01*
%TO.N,Net-(C1-Pad2)*%
X148487809Y-80680733D02*
X151780244Y-83973168D01*
X144932733Y-78130733D02*
X147482733Y-80680733D01*
X130190244Y-78100244D02*
X130190244Y-82427320D01*
X133990244Y-74300244D02*
X130190244Y-78100244D01*
X155590244Y-84470244D02*
X151780244Y-84470244D01*
X137820733Y-78130733D02*
X144932733Y-78130733D01*
X130190244Y-82427320D02*
X130963168Y-83200244D01*
X133990244Y-74300244D02*
X137820733Y-78130733D01*
X136540244Y-83200244D02*
X144170244Y-90830244D01*
X147482733Y-80680733D02*
X148487809Y-80680733D01*
X151780244Y-84470244D02*
X151780244Y-90820244D01*
X130963168Y-83200244D02*
X136540244Y-83200244D01*
%TO.N,Net-(C2-Pad1)*%
X141610244Y-81920244D02*
X144150244Y-81920244D01*
X147970244Y-81930244D02*
X144160244Y-81930244D01*
%TO.N,Net-(C2-Pad2)*%
X149240244Y-90860244D02*
X141549755Y-83169755D01*
X141549755Y-83169755D02*
X140360733Y-83169755D01*
X140350244Y-80640244D02*
X141610244Y-79380244D01*
X140360733Y-83169755D02*
X140350244Y-83159266D01*
X140350244Y-83159266D02*
X140350244Y-80640244D01*
X141610244Y-79380244D02*
X144110244Y-79380244D01*
%TO.N,/V_in*%
X155590244Y-79350244D02*
X151820244Y-79350244D01*
%TO.N,Net-(R1-Pad2)*%
X155590244Y-81890244D02*
X156839755Y-83139755D01*
X156839755Y-83139755D02*
X156839755Y-94650733D01*
X140350244Y-97170244D02*
X136550244Y-93370244D01*
X155590244Y-81890244D02*
X151820244Y-81890244D01*
X156839755Y-94650733D02*
X154320244Y-97170244D01*
X154320244Y-97170244D02*
X140350244Y-97170244D01*
%TO.N,Net-(R3-Pad1)*%
X144129755Y-75549755D02*
X140319755Y-75549755D01*
X133193418Y-72340724D02*
X128220724Y-77313418D01*
X140319755Y-75549755D02*
X137110724Y-72340724D01*
X128220724Y-87861454D02*
X131179514Y-90820244D01*
X128220724Y-77313418D02*
X128220724Y-87861454D01*
X137110724Y-72340724D02*
X133193418Y-72340724D01*
X131179514Y-90820244D02*
X132730244Y-90820244D01*
X147970244Y-79390244D02*
X144129755Y-75549755D01*
X132730244Y-90820244D02*
X136540244Y-90820244D01*
%TO.N,Net-(R3-Pad2)*%
X142920733Y-92120733D02*
X148000733Y-92120733D01*
X148000733Y-92120733D02*
X149240244Y-93360244D01*
X132730244Y-88280244D02*
X136540244Y-88280244D01*
X139090244Y-88290244D02*
X142920733Y-92120733D01*
X136550244Y-88290244D02*
X139090244Y-88290244D01*
%TO.N,-5V*%
X138951204Y-71641204D02*
X132903667Y-71641205D01*
X127521204Y-77023668D02*
X127521204Y-88151204D01*
X141610244Y-74300244D02*
X138951204Y-71641204D01*
X135280244Y-95910244D02*
X136550244Y-95910244D01*
X132903667Y-71641205D02*
X127521204Y-77023668D01*
X127521204Y-88151204D02*
X135280244Y-95910244D01*
%TO.N,+5V*%
X133990244Y-81920244D02*
X137800244Y-81920244D01*
X133990244Y-81920244D02*
X131470244Y-81920244D01*
X137800244Y-81920244D02*
X144170244Y-88290244D01*
%TO.N,/V_out*%
X131460244Y-79390244D02*
X133980244Y-79390244D01*
X133990244Y-79380244D02*
X133990244Y-76840244D01*
%TD*%
%TA.AperFunction,Conductor*%
%TO.N,GND*%
G36*
X138791994Y-89068746D02*
G01*
X138812968Y-89085649D01*
X142336963Y-92609644D01*
X142349349Y-92624056D01*
X142357882Y-92635651D01*
X142357887Y-92635656D01*
X142362225Y-92641551D01*
X142367803Y-92646290D01*
X142367806Y-92646293D01*
X142402501Y-92675768D01*
X142410017Y-92682698D01*
X142415712Y-92688393D01*
X142418594Y-92690673D01*
X142437984Y-92706014D01*
X142441388Y-92708805D01*
X142452779Y-92718482D01*
X142497018Y-92756066D01*
X142503534Y-92759394D01*
X142508571Y-92762753D01*
X142513710Y-92765927D01*
X142519449Y-92770467D01*
X142526082Y-92773567D01*
X142585570Y-92801369D01*
X142589524Y-92803302D01*
X142654541Y-92836502D01*
X142661657Y-92838243D01*
X142667287Y-92840337D01*
X142673054Y-92842256D01*
X142679683Y-92845354D01*
X142686843Y-92846843D01*
X142686845Y-92846844D01*
X142751129Y-92860215D01*
X142755418Y-92861186D01*
X142814802Y-92875717D01*
X142876217Y-92911337D01*
X142908624Y-92974505D01*
X142906561Y-93030717D01*
X142894263Y-93076615D01*
X142876701Y-93142157D01*
X142856746Y-93370244D01*
X142876701Y-93598331D01*
X142935960Y-93819487D01*
X142938283Y-93824468D01*
X142938283Y-93824469D01*
X143030395Y-94022006D01*
X143030398Y-94022011D01*
X143032721Y-94026993D01*
X143164046Y-94214544D01*
X143325944Y-94376442D01*
X143330451Y-94379598D01*
X143330455Y-94379601D01*
X143408633Y-94434342D01*
X143513495Y-94507767D01*
X143518477Y-94510090D01*
X143518482Y-94510093D01*
X143716019Y-94602205D01*
X143721001Y-94604528D01*
X143726309Y-94605950D01*
X143726311Y-94605951D01*
X143936842Y-94662363D01*
X143936844Y-94662363D01*
X143942157Y-94663787D01*
X144170244Y-94683742D01*
X144398331Y-94663787D01*
X144403644Y-94662363D01*
X144403646Y-94662363D01*
X144614177Y-94605951D01*
X144614179Y-94605950D01*
X144619487Y-94604528D01*
X144624469Y-94602205D01*
X144822006Y-94510093D01*
X144822011Y-94510090D01*
X144826993Y-94507767D01*
X144964571Y-94411434D01*
X145010037Y-94379598D01*
X145010038Y-94379597D01*
X145014544Y-94376442D01*
X145018434Y-94372552D01*
X145018440Y-94372547D01*
X145035743Y-94355244D01*
X145098055Y-94321218D01*
X145168870Y-94326283D01*
X145213933Y-94355244D01*
X146057364Y-95198675D01*
X146069750Y-95213087D01*
X146078283Y-95224682D01*
X146078288Y-95224687D01*
X146082626Y-95230582D01*
X146088204Y-95235321D01*
X146088207Y-95235324D01*
X146122902Y-95264799D01*
X146130418Y-95271729D01*
X146136113Y-95277424D01*
X146138995Y-95279704D01*
X146158385Y-95295045D01*
X146161789Y-95297836D01*
X146211831Y-95340350D01*
X146217419Y-95345097D01*
X146223935Y-95348425D01*
X146228984Y-95351792D01*
X146234113Y-95354959D01*
X146239850Y-95359498D01*
X146306009Y-95390419D01*
X146309891Y-95392316D01*
X146374942Y-95425533D01*
X146382050Y-95427272D01*
X146387693Y-95429371D01*
X146393456Y-95431288D01*
X146400084Y-95434386D01*
X146407246Y-95435876D01*
X146407247Y-95435876D01*
X146471546Y-95449250D01*
X146475830Y-95450220D01*
X146546744Y-95467572D01*
X146552346Y-95467920D01*
X146552349Y-95467920D01*
X146557898Y-95468264D01*
X146557896Y-95468300D01*
X146561889Y-95468539D01*
X146566081Y-95468913D01*
X146573249Y-95470404D01*
X146650654Y-95468310D01*
X146654062Y-95468264D01*
X150323654Y-95468264D01*
X150342604Y-95469697D01*
X150356839Y-95471863D01*
X150356843Y-95471863D01*
X150364073Y-95472963D01*
X150371365Y-95472370D01*
X150371368Y-95472370D01*
X150416742Y-95468679D01*
X150426957Y-95468264D01*
X150435017Y-95468264D01*
X150452404Y-95466237D01*
X150463231Y-95464975D01*
X150467606Y-95464542D01*
X150533063Y-95459218D01*
X150533066Y-95459217D01*
X150540361Y-95458624D01*
X150547325Y-95456368D01*
X150553284Y-95455177D01*
X150559139Y-95453793D01*
X150566405Y-95452946D01*
X150635051Y-95428029D01*
X150639179Y-95426612D01*
X150701660Y-95406371D01*
X150701662Y-95406370D01*
X150708623Y-95404115D01*
X150714878Y-95400319D01*
X150720352Y-95397813D01*
X150725782Y-95395094D01*
X150732661Y-95392597D01*
X150738782Y-95388584D01*
X150793700Y-95352578D01*
X150797404Y-95350241D01*
X150859831Y-95312359D01*
X150868208Y-95304961D01*
X150868232Y-95304988D01*
X150871224Y-95302335D01*
X150874457Y-95299632D01*
X150880576Y-95295620D01*
X150933852Y-95239381D01*
X150936230Y-95236939D01*
X151389284Y-94783885D01*
X151451596Y-94749859D01*
X151503500Y-94749510D01*
X151567829Y-94762598D01*
X151567837Y-94762599D01*
X151572900Y-94763629D01*
X151703568Y-94768420D01*
X151799193Y-94771927D01*
X151799197Y-94771927D01*
X151804357Y-94772116D01*
X151986838Y-94748739D01*
X152056947Y-94759923D01*
X152091942Y-94784623D01*
X152505985Y-95198666D01*
X152518371Y-95213078D01*
X152526904Y-95224673D01*
X152526909Y-95224678D01*
X152531247Y-95230573D01*
X152536825Y-95235312D01*
X152536828Y-95235315D01*
X152571523Y-95264790D01*
X152579039Y-95271720D01*
X152584735Y-95277416D01*
X152587596Y-95279679D01*
X152587601Y-95279684D01*
X152607021Y-95295048D01*
X152610421Y-95297836D01*
X152666040Y-95345088D01*
X152672553Y-95348414D01*
X152677592Y-95351775D01*
X152682734Y-95354951D01*
X152688471Y-95359489D01*
X152754630Y-95390410D01*
X152758524Y-95392313D01*
X152823563Y-95425524D01*
X152830672Y-95427263D01*
X152836306Y-95429359D01*
X152842076Y-95431278D01*
X152848705Y-95434377D01*
X152855868Y-95435867D01*
X152855871Y-95435868D01*
X152906585Y-95446416D01*
X152920190Y-95449246D01*
X152924456Y-95450212D01*
X152995365Y-95467563D01*
X153000967Y-95467911D01*
X153000970Y-95467911D01*
X153006519Y-95468255D01*
X153006517Y-95468290D01*
X153010489Y-95468530D01*
X153014710Y-95468907D01*
X153021870Y-95470396D01*
X153099297Y-95468301D01*
X153102705Y-95468255D01*
X154645362Y-95468255D01*
X154713483Y-95488257D01*
X154759976Y-95541913D01*
X154770080Y-95612187D01*
X154740586Y-95676767D01*
X154734457Y-95683350D01*
X154042968Y-96374839D01*
X153980656Y-96408865D01*
X153953873Y-96411744D01*
X140716615Y-96411744D01*
X140648494Y-96391742D01*
X140627520Y-96374839D01*
X137885915Y-93633234D01*
X137851889Y-93570922D01*
X137849489Y-93533157D01*
X137863263Y-93375719D01*
X137863742Y-93370244D01*
X137843787Y-93142157D01*
X137826225Y-93076615D01*
X137785951Y-92926311D01*
X137785950Y-92926309D01*
X137784528Y-92921001D01*
X137776771Y-92904365D01*
X137690093Y-92718482D01*
X137690090Y-92718477D01*
X137687767Y-92713495D01*
X137581224Y-92561336D01*
X137559601Y-92530455D01*
X137559599Y-92530452D01*
X137556442Y-92525944D01*
X137394544Y-92364046D01*
X137390036Y-92360889D01*
X137390033Y-92360887D01*
X137267189Y-92274871D01*
X137206993Y-92232721D01*
X137202011Y-92230398D01*
X137202006Y-92230395D01*
X137167787Y-92214439D01*
X137114502Y-92167522D01*
X137095041Y-92099245D01*
X137115583Y-92031285D01*
X137167787Y-91986049D01*
X137202006Y-91970093D01*
X137202011Y-91970090D01*
X137206993Y-91967767D01*
X137341863Y-91873330D01*
X137390033Y-91839601D01*
X137390036Y-91839599D01*
X137394544Y-91836442D01*
X137556442Y-91674544D01*
X137560716Y-91668441D01*
X137684610Y-91491501D01*
X137687767Y-91486993D01*
X137690090Y-91482011D01*
X137690093Y-91482006D01*
X137782205Y-91284469D01*
X137782205Y-91284468D01*
X137784528Y-91279487D01*
X137803541Y-91208532D01*
X137842363Y-91063646D01*
X137842364Y-91063643D01*
X137843787Y-91058331D01*
X137863742Y-90830244D01*
X137843787Y-90602157D01*
X137784528Y-90381001D01*
X137782205Y-90376019D01*
X137690093Y-90178482D01*
X137690090Y-90178477D01*
X137687767Y-90173495D01*
X137564820Y-89997909D01*
X137559601Y-89990455D01*
X137559599Y-89990452D01*
X137556442Y-89985944D01*
X137394544Y-89824046D01*
X137390033Y-89820887D01*
X137385820Y-89817352D01*
X137386771Y-89816218D01*
X137346773Y-89766173D01*
X137339468Y-89695554D01*
X137371502Y-89632195D01*
X137432706Y-89596214D01*
X137449761Y-89593162D01*
X137460560Y-89591989D01*
X137596949Y-89540859D01*
X137713505Y-89453505D01*
X137800859Y-89336949D01*
X137851989Y-89200560D01*
X137856272Y-89161136D01*
X137883514Y-89095574D01*
X137941878Y-89055148D01*
X137981535Y-89048744D01*
X138723873Y-89048744D01*
X138791994Y-89068746D01*
G37*
%TD.AperFunction*%
%TA.AperFunction,Conductor*%
G36*
X132600576Y-74110413D02*
G01*
X132657412Y-74152960D01*
X132682223Y-74219480D01*
X132682064Y-74239451D01*
X132677225Y-74294758D01*
X132677225Y-74294769D01*
X132676746Y-74300244D01*
X132677225Y-74305719D01*
X132690999Y-74463157D01*
X132677010Y-74532762D01*
X132654573Y-74563234D01*
X129701333Y-77516474D01*
X129686921Y-77528860D01*
X129675326Y-77537393D01*
X129675321Y-77537398D01*
X129669426Y-77541736D01*
X129664687Y-77547314D01*
X129664684Y-77547317D01*
X129635209Y-77582012D01*
X129628279Y-77589528D01*
X129622584Y-77595223D01*
X129620304Y-77598105D01*
X129604963Y-77617495D01*
X129602172Y-77620899D01*
X129559653Y-77670947D01*
X129554911Y-77676529D01*
X129551583Y-77683045D01*
X129548216Y-77688094D01*
X129545049Y-77693223D01*
X129540510Y-77698960D01*
X129509589Y-77765119D01*
X129507686Y-77769013D01*
X129474475Y-77834052D01*
X129472736Y-77841160D01*
X129470637Y-77846803D01*
X129468720Y-77852566D01*
X129465622Y-77859194D01*
X129464132Y-77866356D01*
X129464132Y-77866357D01*
X129450758Y-77930656D01*
X129449788Y-77934940D01*
X129432436Y-78005854D01*
X129431744Y-78017008D01*
X129431708Y-78017006D01*
X129431469Y-78020999D01*
X129431095Y-78025191D01*
X129429604Y-78032359D01*
X129429802Y-78039676D01*
X129431698Y-78109765D01*
X129431744Y-78113172D01*
X129431744Y-82360250D01*
X129430311Y-82379200D01*
X129427045Y-82400669D01*
X129427638Y-82407961D01*
X129427638Y-82407964D01*
X129431329Y-82453338D01*
X129431744Y-82463553D01*
X129431744Y-82471613D01*
X129432169Y-82475257D01*
X129435033Y-82499827D01*
X129435466Y-82504202D01*
X129441384Y-82576957D01*
X129443640Y-82583921D01*
X129444831Y-82589880D01*
X129446215Y-82595735D01*
X129447062Y-82603001D01*
X129471979Y-82671647D01*
X129473396Y-82675775D01*
X129492435Y-82734544D01*
X129495893Y-82745219D01*
X129499689Y-82751474D01*
X129502195Y-82756948D01*
X129504914Y-82762378D01*
X129507411Y-82769257D01*
X129511424Y-82775377D01*
X129511424Y-82775378D01*
X129547430Y-82830296D01*
X129549767Y-82834000D01*
X129587649Y-82896427D01*
X129591365Y-82900635D01*
X129591366Y-82900636D01*
X129595047Y-82904804D01*
X129595020Y-82904828D01*
X129597673Y-82907820D01*
X129600376Y-82911053D01*
X129604388Y-82917172D01*
X129656933Y-82966949D01*
X129660627Y-82970448D01*
X129663069Y-82972826D01*
X130379398Y-83689155D01*
X130391784Y-83703567D01*
X130400317Y-83715162D01*
X130400322Y-83715167D01*
X130404660Y-83721062D01*
X130410238Y-83725801D01*
X130410241Y-83725804D01*
X130444936Y-83755279D01*
X130452452Y-83762209D01*
X130458148Y-83767905D01*
X130461009Y-83770168D01*
X130461014Y-83770173D01*
X130480424Y-83785529D01*
X130483826Y-83788318D01*
X130539453Y-83835577D01*
X130545970Y-83838905D01*
X130551018Y-83842271D01*
X130556140Y-83845434D01*
X130561884Y-83849979D01*
X130628063Y-83880908D01*
X130631947Y-83882807D01*
X130696976Y-83916013D01*
X130704091Y-83917754D01*
X130709746Y-83919857D01*
X130715485Y-83921766D01*
X130722118Y-83924866D01*
X130793603Y-83939735D01*
X130797869Y-83940701D01*
X130868778Y-83958052D01*
X130874380Y-83958400D01*
X130874383Y-83958400D01*
X130879932Y-83958744D01*
X130879930Y-83958779D01*
X130883902Y-83959019D01*
X130888123Y-83959396D01*
X130895283Y-83960885D01*
X130972710Y-83958790D01*
X130976118Y-83958744D01*
X136173873Y-83958744D01*
X136241994Y-83978746D01*
X136262968Y-83995649D01*
X142834573Y-90567254D01*
X142868599Y-90629566D01*
X142870998Y-90667331D01*
X142867920Y-90702511D01*
X142842057Y-90768629D01*
X142784553Y-90810269D01*
X142713666Y-90814209D01*
X142653305Y-90780624D01*
X139674014Y-87801333D01*
X139661628Y-87786921D01*
X139653095Y-87775326D01*
X139653090Y-87775321D01*
X139648752Y-87769426D01*
X139643174Y-87764687D01*
X139643171Y-87764684D01*
X139608476Y-87735209D01*
X139600960Y-87728279D01*
X139595265Y-87722584D01*
X139589124Y-87717726D01*
X139572993Y-87704963D01*
X139569589Y-87702172D01*
X139519541Y-87659653D01*
X139519539Y-87659652D01*
X139513959Y-87654911D01*
X139507443Y-87651583D01*
X139502394Y-87648216D01*
X139497265Y-87645049D01*
X139491528Y-87640510D01*
X139425369Y-87609589D01*
X139421469Y-87607683D01*
X139356436Y-87574475D01*
X139349328Y-87572736D01*
X139343685Y-87570637D01*
X139337922Y-87568720D01*
X139331294Y-87565622D01*
X139259827Y-87550757D01*
X139255543Y-87549787D01*
X139245269Y-87547273D01*
X139184634Y-87532436D01*
X139179032Y-87532088D01*
X139179029Y-87532088D01*
X139173480Y-87531744D01*
X139173482Y-87531708D01*
X139169489Y-87531469D01*
X139165297Y-87531095D01*
X139158129Y-87529604D01*
X139091919Y-87531395D01*
X139080723Y-87531698D01*
X139077316Y-87531744D01*
X137981535Y-87531744D01*
X137913414Y-87511742D01*
X137866921Y-87458086D01*
X137856272Y-87419352D01*
X137854947Y-87407158D01*
X137851989Y-87379928D01*
X137800859Y-87243539D01*
X137713505Y-87126983D01*
X137596949Y-87039629D01*
X137460560Y-86988499D01*
X137398378Y-86981744D01*
X135702110Y-86981744D01*
X135639928Y-86988499D01*
X135503539Y-87039629D01*
X135386983Y-87126983D01*
X135299629Y-87243539D01*
X135248499Y-87379928D01*
X135247646Y-87387781D01*
X135247645Y-87387785D01*
X135245303Y-87409350D01*
X135218062Y-87474912D01*
X135159700Y-87515340D01*
X135120040Y-87521744D01*
X133862111Y-87521744D01*
X133793990Y-87501742D01*
X133758899Y-87468016D01*
X133736442Y-87435944D01*
X133574544Y-87274046D01*
X133570036Y-87270889D01*
X133570033Y-87270887D01*
X133458586Y-87192851D01*
X133386993Y-87142721D01*
X133382011Y-87140398D01*
X133382006Y-87140395D01*
X133184469Y-87048283D01*
X133184468Y-87048283D01*
X133179487Y-87045960D01*
X133174179Y-87044538D01*
X133174177Y-87044537D01*
X132963646Y-86988125D01*
X132963644Y-86988125D01*
X132958331Y-86986701D01*
X132730244Y-86966746D01*
X132502157Y-86986701D01*
X132496844Y-86988125D01*
X132496842Y-86988125D01*
X132286311Y-87044537D01*
X132286309Y-87044538D01*
X132281001Y-87045960D01*
X132276020Y-87048283D01*
X132276019Y-87048283D01*
X132078482Y-87140395D01*
X132078477Y-87140398D01*
X132073495Y-87142721D01*
X132001902Y-87192851D01*
X131890455Y-87270887D01*
X131890452Y-87270889D01*
X131885944Y-87274046D01*
X131724046Y-87435944D01*
X131720889Y-87440452D01*
X131720887Y-87440455D01*
X131668452Y-87515340D01*
X131592721Y-87623495D01*
X131590398Y-87628477D01*
X131590395Y-87628482D01*
X131512939Y-87794589D01*
X131495960Y-87831001D01*
X131436701Y-88052157D01*
X131416746Y-88280244D01*
X131436701Y-88508331D01*
X131438125Y-88513644D01*
X131438125Y-88513646D01*
X131486849Y-88695483D01*
X131495960Y-88729487D01*
X131498283Y-88734468D01*
X131498283Y-88734469D01*
X131590395Y-88932006D01*
X131590398Y-88932011D01*
X131592721Y-88936993D01*
X131724046Y-89124544D01*
X131885944Y-89286442D01*
X131890452Y-89289599D01*
X131890455Y-89289601D01*
X131900225Y-89296442D01*
X132073495Y-89417767D01*
X132078477Y-89420090D01*
X132078482Y-89420093D01*
X132112701Y-89436049D01*
X132165986Y-89482966D01*
X132185447Y-89551243D01*
X132164905Y-89619203D01*
X132112701Y-89664439D01*
X132078482Y-89680395D01*
X132078477Y-89680398D01*
X132073495Y-89682721D01*
X132059214Y-89692721D01*
X131890455Y-89810887D01*
X131890452Y-89810889D01*
X131885944Y-89814046D01*
X131724046Y-89975944D01*
X131701589Y-90008015D01*
X131646134Y-90052343D01*
X131598377Y-90061744D01*
X131545885Y-90061744D01*
X131477764Y-90041742D01*
X131456790Y-90024839D01*
X129016129Y-87584178D01*
X128982103Y-87521866D01*
X128979224Y-87495083D01*
X128979224Y-77679789D01*
X128999226Y-77611668D01*
X129016129Y-77590694D01*
X132467449Y-74139374D01*
X132529761Y-74105348D01*
X132600576Y-74110413D01*
G37*
%TD.AperFunction*%
%TA.AperFunction,Conductor*%
G36*
X136812474Y-73119226D02*
G01*
X136833448Y-73136129D01*
X139735985Y-76038666D01*
X139748371Y-76053078D01*
X139756904Y-76064673D01*
X139756909Y-76064678D01*
X139761247Y-76070573D01*
X139766825Y-76075312D01*
X139766828Y-76075315D01*
X139801523Y-76104790D01*
X139809039Y-76111720D01*
X139814734Y-76117415D01*
X139817616Y-76119695D01*
X139837006Y-76135036D01*
X139840410Y-76137827D01*
X139890458Y-76180346D01*
X139896040Y-76185088D01*
X139902556Y-76188416D01*
X139907605Y-76191783D01*
X139912734Y-76194950D01*
X139918471Y-76199489D01*
X139984630Y-76230410D01*
X139988524Y-76232313D01*
X140053563Y-76265524D01*
X140060671Y-76267263D01*
X140066314Y-76269362D01*
X140072077Y-76271279D01*
X140078705Y-76274377D01*
X140085867Y-76275867D01*
X140085868Y-76275867D01*
X140150167Y-76289241D01*
X140154451Y-76290211D01*
X140225365Y-76307563D01*
X140230967Y-76307911D01*
X140230970Y-76307911D01*
X140236519Y-76308255D01*
X140236517Y-76308291D01*
X140240510Y-76308530D01*
X140244702Y-76308904D01*
X140251870Y-76310395D01*
X140329275Y-76308301D01*
X140332683Y-76308255D01*
X143763384Y-76308255D01*
X143831505Y-76328257D01*
X143852479Y-76345160D01*
X144664457Y-77157138D01*
X144698483Y-77219450D01*
X144693418Y-77290265D01*
X144650871Y-77347101D01*
X144584351Y-77371912D01*
X144575362Y-77372233D01*
X138187104Y-77372233D01*
X138118983Y-77352231D01*
X138098009Y-77335328D01*
X135325915Y-74563234D01*
X135291889Y-74500922D01*
X135289489Y-74463157D01*
X135303263Y-74305719D01*
X135303742Y-74300244D01*
X135283787Y-74072157D01*
X135224528Y-73851001D01*
X135222205Y-73846019D01*
X135130093Y-73648482D01*
X135130090Y-73648477D01*
X135127767Y-73643495D01*
X134996442Y-73455944D01*
X134854817Y-73314319D01*
X134820791Y-73252007D01*
X134825856Y-73181192D01*
X134868403Y-73124356D01*
X134934923Y-73099545D01*
X134943912Y-73099224D01*
X136744353Y-73099224D01*
X136812474Y-73119226D01*
G37*
%TD.AperFunction*%
%TD*%
M02*
