M48
; DRILL file {KiCad (6.0.11)} date Thu Dec  7 00:16:00 2023
; FORMAT={-:-/ absolute / inch / decimal}
; #@! TF.CreationDate,2023-12-07T00:16:00-07:00
; #@! TF.GenerationSoftware,Kicad,Pcbnew,(6.0.11)
; #@! TF.FileFunction,Plated,1,2,PTH
FMAT,2
INCH
; #@! TA.AperFunction,Plated,PTH,ComponentDrill
T1C0.0315
; #@! TA.AperFunction,Plated,PTH,ComponentDrill
T2C0.0394
%
G90
G05
T1
X5.1756Y-3.1256
X5.1756Y-3.2256
X5.1756Y-3.3256
X5.2256Y-3.4756
X5.2256Y-3.5756
X5.2752Y-2.9252
X5.2752Y-3.0252
X5.2752Y-3.1252
X5.2752Y-3.2252
X5.376Y-3.476
X5.376Y-3.576
X5.376Y-3.676
X5.376Y-3.776
X5.5752Y-2.9252
X5.5752Y-3.0252
X5.5752Y-3.1252
X5.5752Y-3.2252
X5.676Y-3.476
X5.676Y-3.576
X5.676Y-3.676
X5.676Y-3.776
X5.68Y-3.1272
X5.68Y-3.2256
X5.8256Y-3.1256
X5.8256Y-3.2256
X5.9756Y-3.1256
X5.9756Y-3.2256
X5.9756Y-3.3256
X6.1256Y-3.124
X6.1256Y-3.224
X6.1256Y-3.3256
X6.1256Y-3.424
T2
X5.8756Y-3.5772
X5.8756Y-3.6756
X5.974Y-3.5772
X5.974Y-3.6756
X6.0725Y-3.5772
X6.0725Y-3.6756
T0
M30
