M48
; DRILL file {KiCad (6.0.11)} date Thu Dec  7 20:00:08 2023
; FORMAT={-:-/ absolute / metric / decimal}
; #@! TF.CreationDate,2023-12-07T20:00:08-07:00
; #@! TF.GenerationSoftware,Kicad,Pcbnew,(6.0.11)
; #@! TF.FileFunction,Plated,1,2,PTH
FMAT,2
METRIC
; #@! TA.AperFunction,Plated,PTH,ComponentDrill
T1C0.800
; #@! TA.AperFunction,Plated,PTH,ComponentDrill
T2C1.000
%
G90
G05
T1
X131.46Y-79.39
X131.46Y-81.93
X131.46Y-84.47
X131.46Y-95.91
X132.73Y-88.28
X132.73Y-90.82
X133.99Y-74.3
X133.99Y-76.84
X133.99Y-79.38
X133.99Y-81.92
X136.55Y-88.29
X136.55Y-90.83
X136.55Y-93.37
X136.55Y-95.91
X141.61Y-74.3
X141.61Y-76.84
X141.61Y-79.38
X141.61Y-81.92
X144.17Y-88.29
X144.17Y-90.83
X144.17Y-93.37
X144.17Y-95.91
X144.272Y-79.43
X144.272Y-81.93
X147.97Y-79.39
X147.97Y-81.93
X151.78Y-79.39
X151.78Y-81.93
X151.78Y-84.47
X155.59Y-79.35
X155.59Y-81.89
X155.59Y-84.47
X155.59Y-86.97
T2
X149.24Y-90.86
X149.24Y-93.36
X151.74Y-90.86
X151.74Y-93.36
X154.24Y-90.86
X154.24Y-93.36
T0
M30
